<?xml version="1.0" encoding="utf-8"?>
<!-- Generator: Adobe Illustrator 16.0.0, SVG Export Plug-In . SVG Version: 6.00 Build 0)  -->
<!DOCTYPE svg PUBLIC "-//W3C//DTD SVG 1.1//EN" "http://www.w3.org/Graphics/SVG/1.1/DTD/svg11.dtd">
<svg version="1.1" id="Layer_1" xmlns="http://www.w3.org/2000/svg" xmlns:xlink="http://www.w3.org/1999/xlink" x="0px" y="0px"
	 width="378.369px" height="171.715px" viewBox="109.03 115.712 378.369 171.715"
	 enable-background="new 109.03 115.712 378.369 171.715" xml:space="preserve">
<g>
	<defs>
		<rect id="SVGID_1_" x="109.03" y="116.009" width="378.369" height="171.418"/>
	</defs>
	<clipPath id="SVGID_2_">
		<use xlink:href="#SVGID_1_"  overflow="visible"/>
	</clipPath>
	<path clip-path="url(#SVGID_2_)" fill="#0000FF" d="M229.472,123.268c0.694,0.415,1.388,0.692,2.081,0.971
		c7.21,3.325,13.449,7.761,19.41,13.167c1.247,1.247,2.496,2.495,3.744,3.742c7.487,8.315,12.755,17.603,15.527,28.552
		c0.832,3.049,1.249,5.821,1.525,8.871c0.277,2.909,0.277,5.959,0.138,8.869c-0.138,2.495-0.553,4.851-0.97,7.347
		c-0.279,1.248-0.555,2.355-0.832,3.604c-0.277,0.832-0.415,1.524-0.693,2.356c-4.715,14.83-16.636,27.858-32.581,29.66
		c-1.941,0.138-3.744,0.138-5.684-0.14c-0.971-0.138-1.941-0.275-2.772-0.692c-0.416-0.277-0.972-0.277-1.388-0.554
		c-0.276-0.14-0.416-0.416-0.692-0.555c-0.14,0-0.278,0-0.417-0.138c-1.248-0.97-1.94-2.357-1.386-3.744
		c0.416-0.97,1.109-1.801,1.941-2.633c1.664-1.387,2.911-2.771,4.437-4.157c0.138-0.277,0.416-0.556,0.554-0.832
		c0,0,0.139-0.139,0.278-0.139c0.138-0.139,0.138-0.416,0.277-0.555c0.139,0,0.276-0.138,0.276-0.138
		c0.556-1.109,1.387-2.08,1.11-3.327c-0.139-0.417-0.554-0.555-0.832-0.692c-2.773-0.415-5.546,0-8.319-0.694
		c-1.108-0.277-2.218-0.693-3.189-1.246c-0.971-0.692-1.94-1.249-2.634-2.219c-0.416-0.693-0.832-1.246-1.109-1.938
		c-0.278-0.832-0.416-1.526-0.416-2.357c0.277-1.939,0.832-3.603,1.109-5.545c0.276-2.356-2.079-3.603-3.744-4.852
		c-0.554-0.275-1.107-0.553-1.664-0.831c-0.554-0.276-1.107-0.416-1.801-0.554c-0.694-0.139-1.248-0.278-1.941-0.278h-2.08
		c-0.694,0.14-1.387,0.14-2.079,0.278c-0.694,0.138-1.387,0.415-2.081,0.692c-1.108,0.417-2.079,1.109-3.049,1.665
		c-1.526,0.829-2.495,2.217-3.745,3.465c-1.248,1.385-2.08,2.909-2.773,4.572c-0.276,0.97-0.692,1.802-0.97,2.772
		c-0.554,1.94-0.832,4.02-0.832,5.96c0,1.664,0.139,3.188,0.416,4.852c0.416,2.357,1.11,4.573,2.079,6.653
		c0.278,0.553,0.556,1.107,0.832,1.662c3.329,5.822,8.042,10.395,14.003,13.584c0.694,0.275,1.249,0.692,1.941,0.969
		c3.467,1.524,7.071,2.496,10.814,2.911c3.327,0.556,6.378,0.556,9.705,0.276c0.832-0.138,1.526-0.138,2.357-0.276
		c10.121-1.524,18.717-6.237,26.065-13.167c2.912-2.771,5.13-5.683,7.487-9.147c1.111-1.802,2.079-3.465,3.051-5.268
		c0.97-1.939,1.801-3.742,2.495-5.682c1.526-4.02,2.356-8.178,3.048-12.476c0.141-1.107,0.279-2.077,0.417-3.187
		c1.665-19.405-5.822-38.394-19.688-52.254c-0.969-0.97-1.801-1.801-2.772-2.633C246.249,131.446,238.348,126.595,229.472,123.268
		 M222.956,200.331c0,2.356,1.526,4.852,4.021,5.127c0.694,0,1.525,0.14,2.219,0c0.832-0.138,1.664-0.415,2.495-0.831
		c1.386-0.831,2.635-1.662,3.743-2.909c2.634-2.912,4.021-6.377,4.714-10.258c0.555-3.05,0.277-5.821-0.138-8.731
		c-0.279-1.386-0.695-2.635-1.11-4.02c-0.277-0.969-0.553-1.801-0.97-2.633c-1.804-3.743-4.021-7.068-6.934-9.98
		c-1.525-1.524-3.189-2.772-4.99-4.159c-0.971-0.69-1.941-1.246-2.911-1.801c-4.714-2.633-9.707-4.435-15.113-5.128
		c-9.982-1.246-19.688,0.693-28.56,5.266c-6.934,3.743-12.618,8.457-17.608,14.832c-4.16,5.405-7.209,10.95-9.291,17.324
		c-0.416,1.388-0.832,2.773-1.248,4.298c-5.684,21.899,0.556,44.768,15.529,61.677c4.021,4.435,8.042,8.178,13.033,11.781
		c4.575,3.188,9.011,5.82,14.003,7.9c4.437,1.801,8.733,3.465,13.585,4.573c2.219,0.417,4.16,0.832,6.377,1.249
		c1.388,0.275,2.635,0.415,4.021,0.554c3.605,0.277,7.071,0.554,10.676,0.416c4.021-0.139,7.903-0.416,12.062-1.247
		c1.663-0.417,3.327-0.694,4.992-1.11c0.971-0.276,1.801-0.554,2.772-0.831c0.138-0.139,0.417-0.139,0.554-0.415
		c-6.655,0.97-13.448,2.077-20.242,1.802c-2.217-0.14-4.436-0.14-6.654-0.417c-1.109-0.139-2.357-0.277-3.466-0.415
		c-1.942-0.138-3.605-0.555-5.547-1.108c-2.079-0.417-4.021-0.692-5.961-1.387c-3.189-1.107-6.376-2.08-9.427-3.465
		c-1.387-0.692-2.773-1.386-4.299-2.08c-22.46-11.503-38.264-34.789-38.404-60.014c0-2.078,0.14-4.157,0.278-6.237
		c0.278-3.05,0.832-5.82,1.526-8.87c1.248-4.712,3.049-8.87,5.406-13.168c1.387-2.494,2.772-4.572,4.576-6.79
		c1.664-2.079,3.465-4.02,5.406-5.822c4.992-4.435,10.539-7.76,16.776-9.702c4.298-1.247,8.597-2.217,13.033-1.939
		c2.08,0.138,4.021,0.138,6.1,0.555c6.654,1.247,12.478,4.158,17.33,8.868c1.525,1.526,2.773,3.05,3.883,4.852
		c0.276,0.417,0.416,0.832,0.693,1.248c0.692,1.664,1.524,3.327,2.079,5.129c0.555,2.08,0.692,4.019,0.692,6.098
		c-0.138,2.08-0.692,4.02-1.385,5.961c-0.694,1.664-1.664,3.049-3.051,4.157c-0.691,0.555-1.523,0.972-2.356,1.387
		c-0.692,0.416-1.524,0.416-2.356,0.555C223.373,200.469,223.096,200.331,222.956,200.331 M158.349,211.835
		c0-0.278,0.277-0.138,0.416-0.278c0.693-0.276,1.248,0.556,1.248,1.11c0,5.683,0.555,11.226,1.941,16.77
		c0.97,3.465,2.495,6.514,3.467,9.841c5.269,17.603,19.688,30.217,36.047,36.869c2.634,1.107,5.406,1.802,8.179,2.771
		c2.219,0.693,4.299,0.969,6.655,1.525c3.327,0.553,6.378,0.97,9.566,1.107c5.269,0.139,10.398,0,15.668-0.692
		c15.109-2.217,28.697-8.039,40.899-17.603c5.543-4.297,9.982-8.871,14.556-14.137c0.833-0.972,1.526-1.802,2.221-2.772
		c2.354-3.05,4.157-5.96,6.237-9.287c2.772-4.712,4.991-9.147,6.933-14.138c1.663-4.572,3.188-8.87,4.298-13.72
		c0.692-3.188,1.247-6.237,1.801-9.427c0.277-1.524,0.277-2.908,0.555-4.297c0.833-7.068,0.417-13.998,0.417-21.065
		c0-0.14-0.138,0.277,0.138,0.277c0.14,1.523,0.555,2.908,0.693,4.435c0.139,2.08,0.277,4.156,0.416,6.236
		c0.138,3.604,0,7.068-0.139,10.674c-0.139,2.633-0.416,5.127-0.831,7.761c-0.415,2.219-0.832,4.296-1.249,6.652
		c-0.692,3.465-1.523,6.515-2.496,9.702c-2.91,8.731-6.515,16.632-11.782,24.534c-2.08,3.048-4.022,5.542-6.24,8.454
		c-0.832,0.969-1.524,1.801-2.356,2.771c-13.311,14.692-29.394,24.949-49.219,29.245c-1.386,0.277-2.497,0.555-3.883,0.831
		c-2.635,0.416-5.128,0.831-7.763,1.11c-3.882,0.277-7.765,0.415-11.646,0.277c-2.497-0.14-4.992-0.415-7.487-0.694
		c-1.248-0.138-2.495-0.277-3.743-0.553c-12.202-2.357-22.738-6.377-32.999-13.723c-1.941-1.387-3.743-2.771-5.546-4.297
		c-0.832-0.692-1.663-1.386-2.495-2.218c-3.327-3.188-6.238-6.098-9.011-9.84c-6.518-8.87-10.814-17.741-13.171-28.414
		c-1.248-5.958-1.663-11.642-1.525-17.463c0-1.941,0.139-3.742,0.416-5.684c0.416-3.741,1.386-7.206,2.357-10.811
		c0.554-1.802,1.11-3.325,1.802-4.989c1.941-4.851,4.299-9.147,7.488-13.583c4.02-5.405,8.179-9.425,13.725-13.307
		c11.37-7.761,23.985-10.948,37.435-8.315c2.357,0.555,4.575,0.97,6.793,1.801c2.08,0.832,4.159,1.804,6.239,2.772
		c3.328,1.664,6.099,4.021,8.734,6.515c5.13,4.99,8.596,10.95,9.845,18.157c0.138,1.109,0.275,2.217,0.415,3.327v4.157
		c-0.14,0.971-0.277,1.94-0.415,2.91c-0.14,0.555-0.277,1.11-0.416,1.802c-0.279,1.248-0.972,2.357-1.25,3.604
		c3.466-5.82,4.298-12.613,3.189-19.403c-0.555-3.327-1.524-6.237-2.356-9.425c0-0.417-0.279-1.109,0.138-1.387
		c0.694-0.277,1.247,0.277,1.802,0.694l0.141,0.275c1.247,0.693,1.939,1.801,2.772,2.912c0.138,0.138,0.276,0.138,0.415,0.277
		c5.822,7.9,7.902,16.908,9.152,26.333c0.138,2.08,0.275,4.714,2.354,5.545c1.111,0.553,2.082-0.416,2.912-0.97
		c1.664-1.525,2.634-3.326,3.744-5.269c0.138-0.138,0.138-0.414,0.138-0.554c7.21-15.801,3.33-33.68-6.378-48.234
		c-1.106-1.663-2.217-2.908-3.465-4.572c-0.692-0.971-1.386-1.803-2.218-2.634c-5.684-6.099-11.923-11.089-19.271-14.829
		c-21.213-10.952-46.306-10.673-67.796-1.249c-2.773,1.249-5.546,2.633-8.319,4.157c-23.43,13.168-39.097,35.206-45.059,61.678
		c-2.495,11.227-3.189,21.761-2.079,32.849c0.691,5.82,1.664,11.365,3.049,17.186c1.526,5.961,3.745,11.366,5.961,16.911
		c-8.457-18.712-12.062-39.087-9.01-59.878c1.248-9.008,3.604-17.323,7.209-25.502c1.248-2.633,2.356-5.128,3.743-7.761
		c1.386-2.495,2.633-4.713,4.299-7.209c1.664-2.355,3.049-4.434,4.852-6.652c1.802-2.216,3.465-4.158,5.406-6.235
		c7.625-8.04,15.944-14.555,25.649-19.543c2.913-1.525,5.684-2.772,8.735-4.019c2.911-1.109,5.824-2.079,8.873-2.911
		c4.577-1.248,9.013-2.08,13.587-2.634c4.577-0.416,9.013-0.553,13.587-0.416c5.824,0.276,11.508,1.247,17.331,2.771
		c18.717,5.128,34.661,16.079,45.06,32.987c1.386,2.219,2.633,4.297,3.742,6.652c1.111,2.357,2.08,4.576,2.912,6.932
		c0.832,2.355,1.525,4.573,2.079,7.069c1.667,7.206,2.221,13.998,1.667,21.205c-0.696,7.762-2.774,15.245-6.378,22.315
		c-0.971,1.939-1.942,3.604-3.189,5.544c-0.554,0.971-1.109,1.801-1.803,2.633c-2.633,3.327-4.992,6.237-8.18,9.01
		c-8.042,6.93-17.33,11.364-27.868,12.612c-4.296,0.415-8.458,0.415-12.755-0.277c-4.853-0.83-9.289-2.218-13.586-4.573
		c-1.941-1.249-3.744-2.357-5.686-3.744c-1.248-0.97-2.217-1.801-3.327-2.908c-1.525-1.526-2.773-3.05-4.021-4.714
		c-6.377-8.593-8.457-19.403-5.13-29.383c0.971-2.91,2.219-5.268,4.021-7.901c0.555-0.693,1.248-1.386,1.803-2.078
		c4.021-4.574,9.15-7.207,15.113-8.455c2.217-0.415,4.296-0.692,6.516-1.247c1.248-0.417,2.633-1.109,2.633-2.355
		c0.278-4.437-4.296-7.347-8.042-8.872c-0.691-0.275-1.248-0.415-1.941-0.692c-2.355-0.692-4.713-1.109-7.069-1.247
		c-2.911-0.14-5.685,0.138-8.597,0.832c-7.21,1.662-13.31,5.266-18.578,10.396c-3.605,3.603-6.516,7.484-8.873,12.057
		C160.429,197.282,158.903,204.488,158.349,211.835"/>
	<path clip-path="url(#SVGID_2_)" fill="#0000FF" d="M223.65,258.812c-14.834-22.739-20.103-51.577-11.508-77.918
		c1.248-3.744,2.635-7.487,4.298-11.092c2.219-4.576,4.575-8.873,7.763-13.171c9.291-13.032,20.659-22.461,34.801-28.561
		c2.91-1.247,5.683-2.22,8.596-3.189c4.436-1.247,8.596-2.079,13.171-2.635c2.912-0.276,5.822-0.417,8.732-0.417
		c5.686,0.141,11.231,0.832,16.917,2.219c15.805,4.021,28.838,12.478,38.403,26.341c1.388,2.081,2.635,4.021,3.744,6.24
		c1.663,3.327,3.05,6.516,4.158,9.982c3.327,10.813,3.467,22.045,0.14,32.858c-0.277,0.97-0.692,1.94-1.109,2.91
		c-0.831,1.942-1.525,3.745-2.496,5.547c-2.219,4.436-5.27,8.18-8.734,11.646c-2.08,2.08-4.02,3.743-6.516,5.27
		c-4.575,2.911-9.013,4.851-14.28,6.099c-3.188,0.694-6.377,0.972-9.566,0.834c-2.358-0.14-4.438-0.419-6.794-0.972
		c-4.853-1.248-9.151-3.327-13.17-6.516c-6.378-5.27-10.261-12.895-9.567-21.075c0.415-3.189,1.247-6.237,3.189-9.011
		c0.971-1.387,2.079-2.357,3.465-3.467c2.774-2.078,6.24-2.91,9.567-2.078c1.249,0.276,2.218,0.831,3.189,1.523
		c0.416,0.417,0.832,0.692,1.247,1.11c1.11,1.524,1.941,3.05,3.051,4.574c4.02,2.912,9.428,0,11.507-4.021
		c0.833-1.664,1.525-3.327,1.804-5.268c0.555-3.604-0.141-7.21-1.525-10.539c-1.388-3.048-3.189-5.543-5.546-7.9
		c-1.804-1.803-3.742-3.051-5.824-4.3c-1.663-0.97-3.466-1.801-5.268-2.355c-7.07-2.218-14.558-2.218-21.628,0
		c-2.359,0.832-4.577,1.663-6.795,2.772c-0.832,0.415-1.524,0.832-2.218,1.248c-8.872,5.683-15.112,13.587-18.718,23.154
		c-1.524,3.881-2.216,7.763-2.91,11.923c-0.14,0.97-0.277,2.08-0.277,3.05c0,2.218-0.14,4.298,0,6.517
		c0.138,2.217,0.415,4.297,0.832,6.517c0.417,2.078,0.832,3.881,1.388,5.822c0.276,0.971,0.553,1.803,0.831,2.635
		c2.497,6.931,6.101,13.031,10.953,18.718c0.694,0.831,1.386,1.384,2.079,2.216c0.556,0.417,0.971,0.972,1.526,1.388
		c0.138,0.138,0.278,0.138,0.417,0.138c-0.138-0.138-0.279-0.415-0.417-0.693c-1.664-1.94-3.051-3.88-4.436-5.822
		c12.339,15.945,32.304,25.372,52.267,25.51c11.092,0.278,22.184-1.939,32.443-6.794c4.437-2.08,8.457-4.436,12.617-7.348
		c3.189-2.357,5.822-4.575,8.735-7.21c2.91-2.772,5.268-5.544,7.9-8.733c9.982-12.478,15.529-26.62,17.609-42.147
		c2.08-15.668,0.138-31.056-5.407-45.614c-1.247-3.05-2.495-5.962-4.021-9.012c-1.526-2.91-3.189-5.823-4.853-8.596
		c11.091,17.469,17.053,38.128,15.251,59.062c-0.141,1.803-0.278,3.605-0.556,5.407c-0.277,1.803-0.415,3.467-0.832,5.268
		c-0.832,3.605-1.663,6.795-2.633,10.261c-0.557,1.664-1.11,3.327-1.803,4.991c-1.387,3.188-2.635,6.24-4.298,9.428
		c-11.507,21.906-31.61,37.573-56.428,42.286c-1.525,0.277-3.052,0.555-4.575,0.694c-1.525,0.139-2.912,0.276-4.438,0.415
		s-2.912,0.139-4.438,0.139c-2.91,0-5.82-0.139-8.872-0.415c-14.003-1.665-26.897-6.934-37.711-16.36
		c-5.961-5.269-10.676-11.093-14.558-18.023c-0.555-1.109-1.109-2.22-1.664-3.329c-1.94-4.436-3.466-8.873-4.438-13.863
		c-1.524-8.181-1.386-15.806,0.556-23.848c1.107-4.297,2.494-8.18,4.574-12.061c5.269-9.705,13.311-17.332,23.292-21.63
		c0.833-0.415,1.664-0.692,2.497-0.97c6.654-2.078,13.311-2.91,20.242-1.663c5.406,1.107,10.12,2.912,14.556,6.238
		c4.576,3.329,7.766,7.487,9.983,12.478c1.94,4.437,2.495,9.013,1.803,13.865c-0.277,2.079-0.971,4.021-1.803,5.962
		c-1.386,3.051-3.605,5.405-6.238,7.487c-3.329,2.355-7.21,3.188-11.092,2.91c-1.663-0.14-3.051-0.692-4.575-1.247
		c-0.556-0.277-0.971-0.417-1.524-0.694c-2.497-1.246-5.409-3.741-8.042-1.663c-0.833,0.832-1.526,1.802-1.805,3.05
		c-2.218,9.428,5.547,17.331,13.588,20.521c1.11,0.415,2.079,0.692,3.189,1.107c0.553,0.14,1.108,0.277,1.663,0.417
		c15.944,3.188,30.918-4.99,39.098-18.578c0.971-1.526,1.802-3.052,2.635-4.715c1.247-2.495,2.08-4.99,2.912-7.763
		c0.276-0.97,0.415-1.804,0.692-2.772c2.911-13.865,0.276-27.035-6.932-39.1c-1.248-2.078-2.497-3.743-3.885-5.684
		c-9.426-12.2-22.043-19.826-37.016-23.292c-6.933-1.525-13.448-1.94-20.243-1.525c3.605,0.277,7.21,0.417,10.814,1.248
		c-17.884-1.524-35.077,3.604-50.604,14.143c-4.021,2.772-7.348,5.685-10.675,9.011c-2.357,2.496-4.576,4.853-6.655,7.625
		c-1.664,2.22-3.051,4.299-4.575,6.656c-2.635,4.158-4.715,8.318-6.518,12.754c-0.692,1.803-1.386,3.606-2.079,5.547
		c-1.941,6.101-3.189,12.2-3.883,18.578c-0.832,6.932-0.416,13.587,0.278,20.52c0.138,1.246,0.416,2.357,0.554,3.604
		c0.694,3.744,1.525,7.072,2.357,10.677c0.278,1.248,0.694,2.357,1.11,3.604C216.44,245.223,219.352,252.296,223.65,258.812"/>
	<path clip-path="url(#SVGID_2_)" fill="#0000FF" d="M346.766,200.248c3.466,5.675,4.713,13.011,0.693,19.103
		c-0.417,0.553-0.693,1.107-1.247,1.66c-0.558,0.415-0.973,0.832-1.525,1.384c-0.555,0.416-1.11,0.692-1.663,0.971
		c-0.834,0.275-1.525,0.553-2.359,0.829c-0.83,0.277-1.525,0.139-2.355,0.139c-0.555,0-0.971-0.139-1.525-0.277
		c-0.417-0.138-0.832-0.415-1.247-0.553c-1.11-0.692-1.803-1.66-2.358-2.77c-0.416-0.968-0.139-1.938-0.276-2.905
		c-0.692-3.461-4.715-4.43-7.766-3.322c-0.83,0.275-1.524,0.83-2.217,1.245c-1.11,0.692-1.803,1.66-2.635,2.77
		c-1.11,1.66-1.663,3.322-1.94,5.12c-0.555,4.016,0.277,8.028,2.497,11.49c0.553,0.83,1.107,1.659,1.801,2.49
		c1.109,1.246,2.219,2.216,3.604,3.321c0.97,0.692,1.803,1.247,2.774,1.802c1.663,0.83,3.188,1.383,4.99,1.938
		c0.554,0.138,1.108,0.275,1.801,0.413c4.022,0.692,7.904,0.832,11.925-0.275c3.327-0.968,6.238-2.215,9.15-4.015
		c6.516-4.291,10.812-10.243,13.17-17.302c0.973-2.77,1.665-5.399,1.94-8.305c0.417-3.461,0.142-6.921-0.415-10.383
		c-0.277-1.662-0.831-3.184-1.248-4.844c-0.415-1.108-0.692-2.216-1.247-3.185c-0.278-0.416-0.278-0.968-0.693-1.247v0.692
		c4.161,12.183,2.219,26.44-7.21,35.852c-1.247,1.107-2.356,2.217-3.742,3.185c-1.248,0.83-2.495,1.521-3.883,2.214
		c-2.495,1.247-4.99,1.939-7.625,2.492c-2.91,0.416-5.822,0.277-8.596-0.553c-1.526-0.416-2.773-1.107-4.16-1.939
		c-0.554-0.414-0.969-0.692-1.523-1.106c-0.693-0.555-1.108-1.107-1.666-1.8c-0.275-0.555-0.553-1.247-0.83-1.798
		c-0.277-0.555-0.138-1.247-0.138-1.8c0.138-0.555,0.553-0.692,0.968-1.109c0.141-0.138,0.416-0.275,0.695-0.275
		c3.465-0.138,6.792,0,10.118-1.247c0.696-0.275,1.388-0.553,2.082-0.968c1.524-0.97,2.771-1.938,4.021-3.323
		c0.692-0.69,1.109-1.521,1.664-2.353c0.275-0.415,0.416-0.83,0.692-1.245c0.971-1.938,1.525-4.015,1.665-6.229
		c0.138-1.661,0-3.321-0.277-5.121C350.094,205.785,348.706,202.878,346.766,200.248 M358.689,225.579
		c1.802-1.661,3.05-3.736,4.02-5.953c0.138-0.555,0.417-1.245,0.693-1.798c1.111-3.739,1.249-7.613-0.415-11.073
		c-0.693-1.524-1.525-2.909-2.496-4.292c-0.692-3.462-2.218-6.644-4.022-9.69c0.278,0,0.278-0.275,0.418-0.414
		c0.555-1.523-0.418-3.046-0.971-4.431c-0.553-1.107-1.249-2.214-2.079-3.184c-0.555-0.553-0.833-1.245-1.388-1.8
		c-1.247-1.383-2.495-2.492-3.881-3.737c-0.692-0.692-1.388-1.106-2.219-1.799c-0.695-0.416-1.11-0.831-1.801-1.246
		c-0.558-0.415-1.11-0.692-1.525-1.246v-0.276c7.763,2.076,13.863,7.614,18.855,14.118c1.523,2.077,2.635,4.152,3.603,6.369
		c1.525,3.598,2.636,7.336,3.051,11.211c0.139,1.247,0.276,2.63,0.276,3.877c0,2.49-0.415,5.121-0.83,7.613
		c2.634-10.105,0.692-20.486-5.27-29.484c-1.385-2.077-2.772-3.877-4.436-5.677c-3.606-3.875-7.625-6.782-12.2-9.136
		c-2.357-1.245-4.714-2.213-7.21-3.043c-9.567-3.047-19.272-2.909-28.978-0.279c-2.633,0.692-4.99,1.662-7.485,2.769
		c-3.189,1.522-6.101,3.185-9.151,5.262c-2.219,1.66-4.16,3.185-6.101,4.982c-7.487,7.061-12.754,15.642-15.943,25.331
		c-1.524,4.568-2.357,9.136-2.772,13.982c-0.14,1.521-0.14,3.044-0.277,4.566c-0.138,1.938,0.138,3.737,0.138,5.677
		c0,1.522,0.14,3.043,0.415,4.566c0.418,2.215,0.556,4.29,1.111,6.367c-0.971-1.798-1.249-3.737-1.664-5.675
		c-0.417-1.938-0.555-3.876-0.833-5.813c-0.277-1.938-0.138-3.737-0.277-5.677c-0.138-2.214,0.139-4.429,0.277-6.644
		c0-0.832,0.138-1.662,0.278-2.492c0.417-3.598,1.385-6.921,2.356-10.519c0.555-1.938,1.249-3.739,2.08-5.537
		c0.971-1.938,1.801-3.876,2.772-5.815c1.664-3.043,3.466-5.674,5.548-8.442c2.354-2.906,4.711-5.398,7.484-7.891
		c10.261-8.998,23.016-14.118,36.465-14.396c2.91,0,5.683,0.139,8.596,0.553c2.635,0.417,5.128,0.971,7.763,1.662
		c4.715,1.385,8.735,3.321,13.035,6.09c1.939,1.384,3.742,2.631,5.543,4.154c5.964,5.121,10.124,11.487,12.896,18.687
		c2.218,5.675,2.91,11.766,2.633,17.856c-0.138,1.938-0.415,3.737-0.832,5.675c-0.832,3.737-2.08,6.921-3.743,10.243
		c-3.604,6.782-9.15,11.903-16.082,15.363c-2.773,1.385-5.546,2.079-8.598,2.632c-4.99,0.97-9.843,0.415-14.418-1.247
		c-2.357-0.968-4.438-2.075-6.654-3.598c-0.972-0.692-1.94-1.522-2.773-2.353c-1.247-1.247-2.218-2.492-3.189-4.016
		c-0.554-0.968-1.108-1.938-1.523-2.905c-0.557-1.385-1.11-2.909-1.388-4.432c-0.277-1.938-0.554-3.874-0.139-5.812
		c0.277-1.385,0.416-2.632,0.97-3.877c0.972-2.215,2.08-4.29,4.022-5.952c1.385-1.246,2.91-2.077,4.712-2.629
		c0.558-0.141,1.248-0.278,1.805-0.417c1.801-0.138,3.605,0.139,5.269,0.831c0.553,0.138,0.969,0.416,1.385,0.692
		c0.971,0.83,1.803,1.522,2.497,2.63c1.247,2.215,1.247,5.399,4.158,5.952c1.664,0.138,3.189-0.553,4.438-1.662
		c3.465-3.183,4.02-7.889,3.05-12.318c-0.694-2.353-1.663-4.43-3.05-6.506c-1.663-2.354-3.605-4.015-5.963-5.675
		c-2.217-1.524-4.575-2.354-7.069-2.907c-3.33-0.97-6.656-1.245-10.121-0.83c-0.555,0.138-1.109,0.138-1.664,0.277
		c-12.201,2.49-21.073,11.626-24.956,22.839c-1.664,5.399-2.495,10.935-1.941,16.61c0.416,4.707,1.664,8.998,3.604,13.288
		c1.386,3.045,2.912,5.676,4.99,8.444c1.389,1.799,2.637,3.323,4.16,4.846c4.159,4.29,9.012,7.336,14.281,9.826
		c2.355,1.109,4.713,1.8,7.208,2.492c7.21,2.077,14.282,2.353,21.628,1.247c2.635-0.417,4.993-1.109,7.487-1.8
		c0.833-0.277,1.663-0.555,2.358-1.109c-8.041,2.217-16.361,3.185-24.816,1.8c-2.497-0.415-4.715-0.968-7.074-1.66
		c-3.88-1.245-7.346-2.768-10.951-4.984c-2.356-1.659-4.574-3.182-6.654-5.121c-2.635-2.492-4.853-4.982-6.933-8.028
		c-6.1-9.135-8.319-19.24-5.961-29.898c1.247-5.26,3.466-9.69,6.793-13.843c1.248-1.522,2.634-2.63,4.16-3.875
		c0.97-0.692,1.94-1.246,3.05-1.8c0.554-0.276,1.108-0.417,1.663-0.276v0.276c-1.248,1.8-2.912,2.768-4.298,4.29
		c-6.239,6.507-9.705,15.228-9.29,24.086c0.14,1.938,0.14,3.875,0.556,5.952c0.832,4.015,2.08,7.613,4.021,11.211
		c1.386,2.354,2.771,4.431,4.436,6.508c0.832,0.968,1.663,1.938,2.636,2.905c1.939,1.939,3.742,3.322,5.959,4.983
		c1.11,0.692,2.221,1.386,3.33,2.078c2.218,1.244,4.436,2.353,6.793,3.184c3.604,1.245,7.069,2.075,10.813,2.63
		c3.05,0.415,5.962,0.415,8.874,0.275c4.436-0.138,8.871-1.105,13.171-2.49c2.357-0.83,4.713-1.662,6.932-2.769
		c5.823-2.908,10.951-6.645,15.666-11.214c2.08-2.214,4.021-4.429,5.824-6.921c0.416-0.692,0.833-1.245,1.248-1.798
		c1.248-2.217,2.633-4.153,3.604-6.369c0.139-0.276,0.417-0.552,0.555-0.829c2.219-4.43,3.744-8.997,4.992-13.843
		c0.138-0.415,0.275-0.968,0.553-1.385c-0.138,6.506-2.493,12.875-5.128,18.965c-0.695,1.523-1.525,3.046-2.497,4.566
		c-1.108,1.802-2.078,3.323-3.326,4.984c-1.389,1.938-2.772,3.461-4.299,5.261c-1.108,1.107-2.218,2.213-3.326,3.322
		c-1.942,1.8-3.882,3.322-6.103,4.981c-4.99,3.601-10.119,5.954-15.805,7.892c-4.298,1.385-8.457,2.075-12.893,2.49
		c-8.598,0.692-17.192-0.691-25.233-4.152c-8.457-3.737-15.527-9.136-21.075-17.165c-2.911-4.29-4.853-8.443-6.377-13.287
		c-0.692-2.353-1.107-4.569-1.386-6.922c-0.277-2.353-0.417-4.567-0.417-6.921c0.417-14.258,8.458-28.099,21.63-34.328
		c2.357-1.107,4.853-1.938,7.485-2.492c2.497-0.554,4.854-0.83,7.35-0.83c2.355,0,4.573,0.276,6.933,0.83
		c3.465,0.968,6.514,2.077,9.703,4.152c2.22,1.522,4.021,3.047,5.823,4.983c0.415,0.416,0.832,0.831,1.11,1.384
		c0.969,1.524,1.939,2.769,2.772,4.293c1.664,3.46,2.634,7.058,2.911,10.796c0.275,2.907-0.14,5.677-0.555,8.582
		c-0.138,0.692-0.275,1.247-0.417,1.938v1.939c0.142,0.691,0.694,1.106,1.388,0.83C357.302,226.409,358.135,226.133,358.689,225.579
		"/>
	<path clip-path="url(#SVGID_2_)" fill="#0000FF" d="M393.487,265.42c-6.653-3.741-12.061-9.286-16.22-15.937
		c-0.556-1.109-1.248-2.079-1.803-3.188c-6.378-12.611-6.794-27.578,0.831-39.913c0.833-1.245,1.525-2.218,2.358-3.463
		c0.83-1.109,1.663-2.08,2.635-3.05c0.555-0.553,0.97-0.97,1.522-1.524c0.971-0.832,1.942-1.663,3.051-2.495
		c3.744-2.771,7.625-4.435,12.2-5.404c1.803-0.416,3.467-0.416,5.271-0.554c2.216-0.139,4.436,0.276,6.653,0.692
		c0.555,0.139,0.972,0.276,1.525,0.416c1.385,0.555,2.772,0.97,4.157,1.664c3.468,1.801,6.24,4.572,8.458,7.76
		c-5.406-9.84-18.023-13.166-28.561-10.256c-2.772,0.832-5.269,1.802-7.763,3.187c-1.248,0.693-2.358,1.525-3.605,2.357
		c-0.555,0.416-1.109,0.832-1.663,1.386c-5.687,5.127-9.567,11.364-11.646,18.709c-1.94,6.93-2.081,13.72-0.556,20.927
		c1.388,6.374,3.883,11.779,7.625,17.185c2.497,3.325,4.993,5.959,7.903,8.729c0.555,0.555,1.109,0.97,1.802,1.524
		c6.934,5.403,14.281,8.87,23.016,10.671c0.833,0.139,1.525,0.276,2.218,0.416c12.618,1.94,24.958,0,36.188-5.544
		c4.853-2.493,9.288-5.266,13.447-8.868c5.823-4.989,10.259-10.395,14.144-16.909c0.553-0.97,1.107-1.939,1.663-2.909
		c2.079-3.881,3.604-7.899,4.991-12.058c4.575-14.135,4.019-29.102,0.138-43.236c6.24,17.738,4.99,37.694-3.327,54.878
		c-1.387,2.634-2.772,4.988-4.436,7.623c-1.388,2.217-2.635,4.02-4.3,5.958c-1.663,1.939-3.327,3.741-5.128,5.544
		c-8.319,7.899-17.748,13.58-29.117,16.353c-2.493,0.555-4.715,1.109-7.208,1.524c-3.605,0.417-7.21,0.555-10.814,0.417
		c-4.715-0.139-9.15-0.832-13.726-2.219c-5.268-1.663-9.982-3.603-14.835-6.79c-2.635-1.801-4.853-3.465-7.21-5.543
		c-4.021-3.742-7.348-7.899-10.121-12.75c-0.832-1.524-1.524-2.911-2.219-4.435c-0.553-1.385-1.108-2.771-1.663-4.297
		c-1.248-3.88-2.078-7.622-2.22-11.642c-0.138-3.188,0-6.375,0.557-9.7c0.277-1.663,0.692-3.048,1.107-4.712
		c0.695-2.631,1.942-4.85,3.188-7.205c0.279-0.556,0.694-0.971,1.109-1.525c6.516-11.917,18.996-19.956,32.443-19.124
		c1.525,0.138,3.052,0.417,4.575,0.692c1.803,0.415,3.467,1.109,5.27,1.802c1.385,0.556,2.635,1.525,4.021,2.356
		c1.663,1.107,2.774,2.494,4.159,3.88c0.831,0.97,1.525,1.802,2.08,2.911c1.801,3.188,2.911,6.65,2.772,10.253
		c-0.139,2.218-0.694,4.298-1.664,6.375c-0.555,1.11-1.386,2.08-2.357,3.05c-1.663,1.525-3.742,2.633-6.101,2.771
		c-0.968,0-2.078-0.139-3.05-0.554c-0.97-0.554-1.94-1.248-2.633-2.218c-0.556-0.831-0.694-1.663-0.972-2.493
		c-1.525-3.05-5.546-3.188-8.316-1.526c-1.667,0.97-2.914,2.356-3.745,4.02c-0.277,0.694-0.555,1.247-0.832,1.939
		c-1.247,3.882-0.694,7.9,0.832,11.642c0.276,0.416,0.415,0.97,0.693,1.386c1.525,2.495,3.327,4.572,5.545,6.375
		c6.239,4.85,13.865,6.098,21.49,4.712c4.99-0.97,9.013-3.048,13.17-5.959c5.269-4.019,9.013-8.87,11.509-14.69
		c2.773-6.512,3.882-13.304,3.189-20.371c-0.278-3.188-0.971-6.237-1.942-9.285c-1.385-4.157-3.188-7.899-5.545-11.502
		c1.939,3.325,3.188,7.067,3.882,10.81c-2.772-8.038-7.487-14.967-14.141-20.649c-2.635-2.355-5.407-4.02-8.459-5.958
		c-1.108-0.692-2.218-1.387-3.326-1.941c-1.249-0.553-2.359-1.108-3.606-1.663c-3.465-1.385-6.793-2.355-10.535-3.048
		c-2.496-0.417-4.853-0.692-7.211-0.831c-7.208-0.278-14.279,0.831-21.212,3.047c-0.971,0.279-1.801,0.555-2.772,0.97
		c-5.823,2.357-11.093,5.405-16.221,9.425c-0.832,0.694-1.666,1.385-2.497,2.079c-8.317,7.206-14.141,16.215-18.023,26.192
		c-2.355,6.235-3.742,12.472-4.438,19.124c-0.968,9.978,0.279,19.68,3.189,29.241c0.971,2.91,2.081,5.543,3.188,8.314
		c-9.15-19.818-9.982-43.377,0-63.194c2.772-5.404,5.824-10.115,9.845-14.827c0.97-1.109,1.94-2.078,2.912-3.048
		c2.078-2.08,4.019-3.882,6.378-5.684c4.436-3.464,9.013-6.098,14.003-8.313c8.04-3.467,16.497-5.268,25.232-5.268
		c2.911,0,5.822,0.278,8.735,0.693c16.497,2.494,30.916,11.917,39.096,26.608c0.556,1.108,1.109,2.218,1.663,3.325
		c0.972,2.355,1.942,4.573,2.635,6.93c1.942,6.79,2.357,13.72,1.109,20.787c-0.415,2.217-0.972,4.297-1.664,6.374
		c-2.08,5.961-5.406,11.365-9.98,15.798c-2.913,2.774-5.961,4.852-9.429,6.652c-3.327,1.665-6.654,2.772-10.26,3.327
		c-1.802,0.277-3.465,0.415-5.129,0.415c-0.833,0-1.804,0-2.634-0.138c-4.022-0.555-7.765-1.387-11.369-3.325
		c-4.438-2.495-8.041-5.821-10.676-10.257c-3.465-5.82-4.022-12.611-1.664-18.707c0.969-2.218,2.219-4.297,4.02-6.1
		c0.694-0.553,1.249-1.107,1.942-1.663c1.663-1.246,3.327-1.939,5.268-2.632c3.467-1.109,6.793-0.415,10.399-0.832
		c1.94-0.415,1.803-2.771,1.108-4.157c-0.416-0.832-0.971-1.385-1.525-2.078c-0.692-0.832-1.385-1.524-2.355-2.08
		c-1.942-1.246-3.744-2.077-5.963-2.494c-0.691-0.138-1.249-0.277-1.941-0.277c-2.218-0.138-4.436-0.138-6.795,0.415
		c-1.522,0.417-2.91,0.832-4.295,1.387c-1.248,0.555-2.221,1.248-3.468,1.94c-0.831,0.415-1.385,1.109-2.08,1.662
		c-0.83,0.693-1.386,1.525-2.078,2.355c-0.277,0.557-0.415,1.11-0.832,1.526c-0.971,0.831-1.803,1.523-2.635,2.493
		c-0.554,0.694-1.108,1.387-1.801,2.08c-0.972,1.107-1.525,2.494-2.22,3.74c-1.248,2.219-2.495,4.157-3.466,6.376
		c-0.692,1.801-1.249,3.603-1.664,5.544c-0.416,2.216-0.555,4.296-0.555,6.374c0.139,3.742,0.694,7.482,1.802,11.087
		c1.663,5.266,4.16,9.84,7.625,14.274C386,259.598,389.33,262.924,393.487,265.42"/>
</g>
</svg>
