<?xml version="1.0" encoding="utf-8"?>
<!-- Generator: Adobe Illustrator 16.0.0, SVG Export Plug-In . SVG Version: 6.00 Build 0)  -->
<!DOCTYPE svg PUBLIC "-//W3C//DTD SVG 1.1//EN" "http://www.w3.org/Graphics/SVG/1.1/DTD/svg11.dtd">
<svg version="1.1" id="Layer_1" xmlns="http://www.w3.org/2000/svg" xmlns:xlink="http://www.w3.org/1999/xlink" x="0px" y="0px"
	 width="774.189px" height="478.879px" viewBox="0 0 774.189 478.879" enable-background="new 0 0 774.189 478.879"
	 xml:space="preserve">
<g>
	<defs>
		<rect id="SVGID_1_" width="774.025" height="478.879"/>
	</defs>
	<clipPath id="SVGID_2_">
		<use xlink:href="#SVGID_1_"  overflow="visible"/>
	</clipPath>
	<path clip-path="url(#SVGID_2_)" fill="#0000FF" d="M110.585,440.463c4.678,5.366,12.491,11.652,21.627,14.484
		c23.646,7.561,52.369,2.737,83.918-16.367c31.49-18.872,65.809-52.035,99.222-95.794c34.406-45.849,45.923-70.23,46.561-80.934
		c0.283-10.748-10.313-7.818-28.343-0.094c-4.235,1.833-8.47,3.483-12.706,4.937C264.867,335.473,194.774,403.164,110.585,440.463
		 M336.848,246.45c6.187-2.456,12.373-5.327,18.56-8.56c20.264-10.678,40.35-31.902,56.899-53.547
		c16.689-21.887,29.843-44.193,39.428-62.709c12.275-23.81,16.928-37.379,16.949-44.248c-0.125-6.73-4.884-6.75-14.772-0.158
		c-6.454,4.299-12.09,9.211-17.576,14.702C411.894,137.65,378.732,191.87,336.848,246.45 M413.994,103.043
		c-2.561,0.069-5.072-0.021-7.534-0.268c3.688-5.925,7.247-11.776,10.667-17.542c19.27-7.224,38.542-19.579,57.81-32.506
		c7.896-5.376,14.439-6.631,17.696-2.105c2.949,4.917,2.619,15.611-10.255,43.239c-12.724,26.992-31.058,55.565-50.163,80.075
		c-19.123,24.595-39.021,45.127-55.245,58.06c-0.292,0.45-0.583,0.89-0.876,1.334c11.598-3.118,20.149-3.192,20.4,7.452
		c-0.02,10.758-8.344,32.233-36.72,74.989c-28.532,42.251-65.097,86.527-103.708,117.77
		c-38.466,31.418-78.978,49.812-112.066,44.399c-48-7.071-95.998-38.624-143.997-105.078c9.291,1.26,18.447,2.026,27.469,2.333
		c10.224,10.026,20.383,18.728,30.475,26.205c84.524-11.731,156.455-60.204,215.796-117.369
		C333.083,226.446,379.835,160.164,413.994,103.043"/>
	<path clip-path="url(#SVGID_2_)" fill="#0000FF" d="M279.471,441.584c5.629-7.026,11.163-14.073,16.6-21.13
		c10.02-7.926,19.949-16.327,29.797-25.099c57.181-79.99,102.69-156.991,136.527-219.414
		c33.829-62.783,55.992-110.979,66.476-141.73c3.289-9.947,0.223-10.323-6.153-6.632c0.84-2.688,1.581-5.243,2.23-7.665
		C535.193,9.785,543.753,3.055,550.622,0c4.372,12.878-8.563,48.414-38.812,110.559c-30.248,61.346-77.807,149.292-142.678,248.546
		c6.147-4.413,12.354-9.06,18.619-13.906c-4.696,7.378-9.485,14.824-14.372,22.321C342.075,396.523,310.773,422.174,279.471,441.584
		"/>
	<path clip-path="url(#SVGID_2_)" fill="#0000FF" d="M594.476,73.349c-33.368,30.382-63.462,72.118-91.551,122.508
		c-15.444,27.777-17.291,41.55-4.304,28.019c11.966-12.428,30.662-35.984,42.013-51.976
		C563.363,131.315,581.309,98.309,594.476,73.349 M581.581,133.167c-6.367,11.184-11.079,20.354-2.063,11.879
		c4.707-4.387,11.862-12.586,19.008-20.938c0.196,1.656,0.381,3.326,0.554,5.012c-5.579,7.55-15.729,20.616-27.382,35.135
		c-11.598,14.395-24.698,30.243-34.893,40.68c-23.24,23.967-17.043,7.877-7.437-11.727c-31.498,43.53-61.811,84.393-87.628,111.088
		c-29.584,30.524-21.9,5.308,6.585-43.15c28.784-49.269,55.838-89.473,81.734-122.795c25.775-33.212,50.395-59.537,71.53-78.636
		c2.903-5.623,5.49-10.738,7.766-15.353c3.679-7.423,3.102-11.164,0.778-13.071c-2.374-1.814-6.493-1.799-11.003,0.41
		c-2.422,1.215-5.712,5.945-11.031,12.848c-5.211,6.75-12.453,15.675-20.299,21.62c-11.596,8.895-13.548,6.562-8.136-5.475
		c6.918-15.542,19.722-25.895,29.394-30.589c9.336-4.739,22.745-7.99,33.859-7.847c10.743,0.568,20.166,1.69,13.335,14.084
		C626.023,55.115,607.802,87.161,581.581,133.167"/>
	<path clip-path="url(#SVGID_2_)" fill="#0000FF" d="M700.801,33.065c4.838,1.033,9.813-0.85,13.187-2.876
		c3.451-2.075,5.303-4.289,5.762-5.015c0.208,0.049,0.415,0.104,0.628,0.158c6.985,4.324,9.846,15.363,13.466,26.156
		c3.488,11.03,7.736,21.812,14.346,31.31c8.426,12.576,18.862,17.958,24.204,6.405c4.912-10.689-1.759-28.736-13.301-37.962
		c-8.128-6.829-16.127-9.943-18.172-11.391c-3.234-2.001-6.099-8.366-10.423-12.413c-4.586-3.607-10.624-4.902-26.255,13.461
		c-5.245,6.197-11.646,14.879-17.15,24.155c7.114-3.419,14.284-6.598,21.512-9.503c-2.096,2.58-4.287,5.342-6.574,8.292
		c-32.198,17.533-64.395,42.227-96.595,70.933c3.049-5.085,6.004-10.002,8.865-14.746c9.062-8.583,18.037-16.688,26.933-24.233
		c25.936-41.189,42.324-64.108,49.156-71.689c2.266-2.599,1.89-3.079-0.988-3.711c-2.879-0.539-8.256-1.226-15.949-2.061
		c0.094-0.198,0.089-0.262-0.01-0.218C683.335,19.851,692.454,24.817,700.801,33.065"/>
</g>
</svg>
