<?xml version="1.0" encoding="utf-8"?>
<!-- Generator: Adobe Illustrator 16.0.0, SVG Export Plug-In . SVG Version: 6.00 Build 0)  -->
<!DOCTYPE svg PUBLIC "-//W3C//DTD SVG 1.1//EN" "http://www.w3.org/Graphics/SVG/1.1/DTD/svg11.dtd">
<svg version="1.1" id="Layer_1" xmlns="http://www.w3.org/2000/svg" xmlns:xlink="http://www.w3.org/1999/xlink" x="0px" y="0px"
	 width="791.242px" height="284.354px" viewBox="0 0 791.242 284.354" enable-background="new 0 0 791.242 284.354"
	 xml:space="preserve">
<g>
	<g>
		<g>
			<path fill="#0000FF" d="M297.908,63.285c-5-1-10-4-14-7c2-5,8-6,10-11c20,6,41,8,63,5c5-1,10-1,15-3c1,0,2-2,3-2c9-2,17-7,26-10
				c3-1,7-1,10,0c9,3,10,14,9,22c-1,6-2,12-4,18c-2,5-3,9-5,14c-7,13-14,26-24,38c-4,6-9,10-14,15c-3,3-7,6-11,9c-11,8-22,14-35,18
				c-5,1-10,3-15,4c-9,1-18,3-28,2c-3-1-7,0-10-1c-4-1-9-2-13-3c10,9,24,18,21,34c-1,3-2,6-4,8c-22,22-52,27-82,32c-21,3-42,4-63,6
				c-10,1-21,1-31,0c-11,0-23,0-34,0c-9,1-18,2-26,5c-1,1-2,2-3,2c-14,4-27,12-39,21c3-7,3-14,7-21c2-3,5-6,9-9c3-1,5-2,7-5
				c22-47,55-86,101-111c8-4,16-8,25-11s17-6,26-8c39-8,77-12,109-38C288.908,72.285,292.908,67.285,297.908,63.285L297.908,63.285z
				 M221.908,138.285c21,22,53,31,83,22c1,0,2-2,3-2c5-1,10-3,14-6c1-1,3,0,4-1c28-19,54-43,58-77c0-1,0-4-1-5c-8-12-23-4-34-3
				c-6,1-11,3-16,5C305.908,106.285,265.908,133.285,221.908,138.285L221.908,138.285z M57.908,234.285c3-1,6,2,9,2c14,1,27-2,41-3
				c12-2,24-5,36-8c24-6,46-13,69-19c5-1,8-4,13-5c1,0,1-2,2-2c8-3,17-9,16-18s-7-14-13-20c-8-7-17-14-25-21c-24,2-48,8-70,19
				c-3,2-6,3-9,5C97.908,182.285,73.908,205.285,57.908,234.285L57.908,234.285z"/>
		</g>
		<g>
			<path fill="#0000FF" d="M228.908,279.285c1-6,2-11,3-17c6-4,10-10,17-13c20-60,74-106,137-115c35,1,68-12,97-34c1-1,2-3,3-4
				c10-10,26-19,25-34c0-3-4-4-8-4c3-3,4-9,8-12c21-12,40-26,53-46c-8,45-29,86-64,117c-3,2-6,4-9,7c-26,20-55,31-87,35
				c-5,0-10,1-15,1c-8,1-15,3-23,5c-3,1-6,2-9,3c-15,6-28,14-41,24c-1,1-2,3-3,4c-3,2-6,4-8,6c-4,5-9,10-13,15c-6,9-12,17-16,27
				c4,2,9,3,13,4c-2,4-4,9-6,13c-11,1-22,2-32,6c-2,1-4,2-7,3C238.908,272.285,233.908,275.285,228.908,279.285L228.908,279.285z"/>
		</g>
		<g>
			<path fill="#0000FF" d="M455.908,248.285c-4,0-6,4-10,6v2c6,6,15,5,22,5c-1,2-1,6-2,6c-19,4-38,11-57,4c-3-1-4-4-5-7
				c-1-8,3-16,8-21c-1,0-3,0-4,1c-7,3-13,8-20,11c-14,8-24,22-40,24c-11-9-5-25-2-37c1-4,3-7,4-10c2-4,3-8,6-11c7-8,12-16,20-23
				c5-4,10-7,16-11c5-3,11-5,16-7c6-2,11-3,17-4c9-1,19-1,28,1c27,8,54,21,82,13c18-12,34-28,38-50c0-3,0-6,0-9c0-1-1-3-2-3
				s-2-1-3-1c-3,1-5,3-7,5c-11,14-29,31-47,19c-1-1-1-2-2-3c-1-5,3-8,6-12c2-1,3-3,5-5c2-1,3-3,5-4c5-3,8-6,13-8c16-8,38-16,50,1
				c2,3,3,5,4,8c1,13-2,25-8,37c-7,12-16,22-26,33c-3,3-6,5-9,8c-26,21-56,29-88,38
				C460.908,245.285,458.908,247.285,455.908,248.285L455.908,248.285z M516.908,201.285c-16-1-32-3-48-9c-31-10-73,2-83,36
				c0,2,0,3,0,5s2,3,3,4c12,1,24-1,35-6c7-3,13-7,20-10c4-1,9-2,13-3C477.908,212.285,498.908,212.285,516.908,201.285
				L516.908,201.285z"/>
		</g>
		<g>
			<path fill="#0000FF" d="M729.908,119.285c-4,25-25,43-46,56c12-2,23-8,34-14c5-3,8-6,13-9c4-3,7-6,11-9c13-12,23-26,37-38
				c2-1,4-3,6-3c8,1,4,11,3,17c-2,9-5,16-10,24c-5,6-9,13-15,17c-4,2-6,6-10,7c-5,1-9,5-15,4c-4-1-7-3-11-5c-22,11-44,22-69,24
				c-10,0-21,0-31,1c-12,2-23,5-34,11c-3,2-6,3-9,5c-15,9-26,21-35,35c4,2,8,4,13,5c-3,4-6,8-9,12c-21-1-42,7-58,20c3-6,1-13,5-18
				c5-6,13-8,17-14c12-17,22-34,37-47c3-2,6-4,9-7c1-1,3-2,5-3c1-1,2-3,4-4c12-6,23-12,35-16c25-9,59-3,73-29c2-5-3-8-7-10
				c3-2,7-6,10-6C698.908,125.285,714.908,124.285,729.908,119.285L729.908,119.285z"/>
		</g>
	</g>
</g>
</svg>
