<?xml version="1.0" encoding="utf-8"?>
<!-- Generator: Adobe Illustrator 16.0.0, SVG Export Plug-In . SVG Version: 6.00 Build 0)  -->
<!DOCTYPE svg PUBLIC "-//W3C//DTD SVG 1.1//EN" "http://www.w3.org/Graphics/SVG/1.1/DTD/svg11.dtd">
<svg version="1.1" id="Layer_1" xmlns="http://www.w3.org/2000/svg" xmlns:xlink="http://www.w3.org/1999/xlink" x="0px" y="0px"
	 width="378.369px" height="22.112px" viewBox="109.03 115.712 378.369 22.112"
	 enable-background="new 109.03 115.712 378.369 22.112" xml:space="preserve">
<g>
	<defs>
		<rect id="SVGID_1_" x="110.148" y="115.712" width="377.761" height="22.518"/>
	</defs>
	<clipPath id="SVGID_2_">
		<use xlink:href="#SVGID_1_"  overflow="visible"/>
	</clipPath>
	<path clip-path="url(#SVGID_2_)" fill="#0000FF" d="M150.137,136.666c4.068,0.117,9.716,0.232,14.46,0.232
		c24.627,0,43.377-1.188,43.377-4.718c0-3.675-21.463-5.006-48.348-5.006h-9.49V136.666z M150.137,126.246h14.46
		c31.404,0,38.408-2.055,38.408-3.994c0-2.489-10.392-3.762-34.793-3.762c-7.908,0-13.557,0.114-18.076,0.29V126.246z
		 M122.574,118.721l-12.426-0.231v-0.927h75.914c20.558,0,44.507,1.158,44.507,4.458c0,3.184-22.368,4.399-43.152,4.746v0.059
		c25.53,0.695,50.382,2.317,50.382,5.617c0,3.298-21.463,5.382-54.901,5.382h-72.75v-0.926l12.426-0.232V118.721z"/>
	<path clip-path="url(#SVGID_2_)" fill="#0000FF" d="M249.1,137.824v-0.782l12.426-0.29v-17.277c0-0.955-4.293-1.245-12.426-1.245
		v-0.783l35.019-1.736v21.04l12.426,0.29v0.782H249.1z"/>
	<path clip-path="url(#SVGID_2_)" fill="#0000FF" d="M361.387,129.749c-19.204,0.666-30.951,1.967-30.951,4.139
		c0,1.186,8.134,2.313,14.91,2.313c6.324,0,13.104-0.433,16.041-0.924V129.749z M383.979,135.305c0,0.579,0.679,1.072,5.423,1.072
		c2.484,0,5.196-0.176,7.682-0.407l3.842,0.609c-2.486,0.577-11.071,1.649-21.237,1.649c-11.524,0-15.591-0.955-17.399-1.938
		c-8.584,1.154-17.169,1.938-30.047,1.938c-14.46,0-25.305-1.562-25.305-3.415c0-3.792,30.501-4.863,54.449-6.137v-1.417
		c0-1.534-9.037-2.693-16.719-2.693c-4.068,0-5.875,1.941-17.849,1.941c-8.812,0-12.878-0.435-12.878-1.362
		c0-1.215,10.619-1.593,19.204-1.593c16.719,0,50.834,1.276,50.834,4.603V135.305z"/>
	<path clip-path="url(#SVGID_2_)" fill="#0000FF" d="M432.104,123.555c6.778,0.724,9.49,2.951,10.843,4.429h0.456
		c9.036-3.156,19.203-4.429,30.95-4.429c7.682,0,13.557,0.548,13.557,1.621c0,0.984-6.778,1.794-15.363,1.794
		c-6.101,0-11.75-0.319-13.329-0.319c-4.746,0-13.333,2.229-13.333,7.411c0,0.869,0.228,1.793,1.358,2.689l12.423,0.29v0.782h-48.8
		v-0.782l12.428-0.29v-7.812c0-1.65-3.841-3.474-16.494-3.474v-0.783L432.104,123.555z"/>
</g>
</svg>
