<?xml version="1.0" encoding="utf-8"?>
<!-- Generator: Adobe Illustrator 16.0.0, SVG Export Plug-In . SVG Version: 6.00 Build 0)  -->
<!DOCTYPE svg PUBLIC "-//W3C//DTD SVG 1.1//EN" "http://www.w3.org/Graphics/SVG/1.1/DTD/svg11.dtd">
<svg version="1.1" id="Layer_1" xmlns="http://www.w3.org/2000/svg" xmlns:xlink="http://www.w3.org/1999/xlink" x="0px" y="0px"
	 width="378.369px" height="136.026px" viewBox="109.03 65.47 378.369 136.026"
	 enable-background="new 109.03 65.47 378.369 136.026" xml:space="preserve">
<g>
	<defs>
		<rect id="SVGID_1_" x="109.773" y="65.47" width="377.063" height="136.026"/>
	</defs>
	<clipPath id="SVGID_2_">
		<use xlink:href="#SVGID_1_"  overflow="visible"/>
	</clipPath>
	<path clip-path="url(#SVGID_2_)" fill="#0000FF" d="M147.715,192.054c2.446,0.699,6.118,1.399,9.788,1.399
		c19.057,0,40.737-7.169,62.068-28.5c22.206-22.205,13.639-30.248-7.166-30.248h-7.344L147.715,192.054z M210.653,129.114h11.189
		c24.305,0,42.139-12.412,53.852-24.126c15.038-15.038,14.687-22.731-4.194-22.731c-6.12,0-11.193,0.7-15.738,1.748L210.653,129.114
		z M234.783,83.656l-8.217-1.4l5.594-5.595h58.745c15.912,0,27.45,6.995,7.517,26.926c-19.229,19.231-43.881,26.574-62.065,28.674
		l-0.351,0.35c15.561,4.195,25.002,13.985,5.07,33.917c-19.93,19.933-49.128,32.521-75.003,32.521h-56.299l5.594-5.596l11.017-1.399
		L234.783,83.656z"/>
	<path clip-path="url(#SVGID_2_)" fill="#0000FF" d="M219.036,199.05l4.721-4.722l11.366-1.748L339.5,88.199
		c5.771-5.769,4.195-7.517-2.1-7.517l4.722-4.719l37.591-10.491L252.605,192.58l7.868,1.748l-4.722,4.722H219.036z"/>
	<path clip-path="url(#SVGID_2_)" fill="#0000FF" d="M356.455,150.268c-18.886,4.021-35.846,11.891-48.957,25.002
		c-7.169,7.167-7.695,13.988-2.447,13.988c4.895,0,12.764-2.624,18.007-5.598L356.455,150.268z M340.369,183.838
		c-3.5,3.497-5.947,6.469-2.275,6.469c1.923,0,5.071-1.048,8.393-2.447l-0.698,3.671c-5.419,3.498-18.533,9.97-26.399,9.97
		c-8.919,0-6.296-5.774-1.748-11.717C304,196.775,292.636,201.5,282.672,201.5c-11.189,0-10.142-9.445,1.049-20.634
		c22.903-22.902,52.975-29.374,79.203-37.066l8.564-8.567c9.27-9.267,9.27-16.262,3.321-16.262
		c-3.145,0-16.259,11.717-25.526,11.717c-6.818,0-7.34-2.624-1.747-8.217c7.343-7.343,17.833-9.617,24.479-9.617
		c12.936,0,31.643,7.69,11.538,27.797L340.369,183.838z"/>
	<path clip-path="url(#SVGID_2_)" fill="#0000FF" d="M449.107,112.854c0.874,4.372-10.49,17.833-18.357,26.75h0.348
		c26.053-19.058,41.612-26.75,50.707-26.75c5.943,0,7.165,3.322,0.695,9.791c-5.942,5.943-16.083,10.841-22.729,10.841
		c-4.721,0-7.166-1.924-8.391-1.924c-3.674,0-23.778,13.462-55.073,44.76c-5.248,5.245-10.667,10.838-15.212,16.259l7.869,1.748
		l-4.722,4.722h-37.767l4.722-4.722l11.364-1.748l47.207-47.207c9.967-9.964,18.007-20.979,8.219-20.979l4.717-4.721
		L449.107,112.854z"/>
</g>
</svg>
