<?xml version="1.0" encoding="utf-8"?>
<!-- Generator: Adobe Illustrator 16.0.0, SVG Export Plug-In . SVG Version: 6.00 Build 0)  -->
<!DOCTYPE svg PUBLIC "-//W3C//DTD SVG 1.1//EN" "http://www.w3.org/Graphics/SVG/1.1/DTD/svg11.dtd">
<svg version="1.1" id="Layer_1" xmlns="http://www.w3.org/2000/svg" xmlns:xlink="http://www.w3.org/1999/xlink" x="0px" y="0px"
	 width="540.122px" height="265.941px" viewBox="28.945 0 540.122 265.941" enable-background="new 28.945 0 540.122 265.941"
	 xml:space="preserve">
<g>
	<defs>
		<rect id="SVGID_1_" x="28.945" y="0" width="540.122" height="265.941"/>
	</defs>
	<clipPath id="SVGID_2_">
		<use xlink:href="#SVGID_1_"  overflow="visible"/>
	</clipPath>
	<path clip-path="url(#SVGID_2_)" fill="#0000FF" d="M110.359,219.429c-17.434,32.644-7.197,34.28,13.803,1.723
		c32.231,32.558,66.217,15.771,41.411-35.154c24.806-51.034-14.094-69.871-46.156-37.313c-16.666-32.558-33.865-32.558-9.059,0
		C85.553,116.127,85.553,250.432,110.359,219.429 M109.293,109.418c-22.674,25.97,3.534,25.97,13.803,0
		c46.649,25.97,59.341-3.104,36.666-29.762c22.675-35.991,3.841-54.007-33.214-28.038c-21.501-25.97-31.739-24.331-17.255,2.157
		C86.62,29.743,86.62,135.387,109.293,109.418 M81.868,71.172C37.778,11.094,15.257,7.82,70.006,69.446
		c-54.749-61.626-54.749-74.729,0-6.902c-54.749-67.828,82.835-67.828,72.466,0c47.631-67.828,91.037-51.45,42.488,33.217
		c48.548,7.055,8.008,24.255-41.194,35.368c11.531-6.202,11.531-5.379,0,0.434c57.802,4.013,102.844,26.945,48.097,41.841
		c54.748,78.463,15.847,107.944-52.411,40.116c7.657,67.828-124.195,67.828-69.446,0c-54.749,67.828-54.749,54.726,0-6.902
		c-54.749,61.628-32.228,58.351,11.862-1.725C37.778,264.969,37.778,11.094,81.868,71.172"/>
	<path clip-path="url(#SVGID_2_)" fill="#0000FF" d="M245.045,210.418c-20.348,74.031-20.348,62.976,0-5.823
		c-20.348,68.799,2.172,64.702,11.862-2.157c-9.689,66.859-9.689-177.596,0-128.758c-9.689-62.349-17.469-66.443-11.862-9.276
		c-20.348-57.167-20.348-68.223,0-5.822c-20.348-62.401,43.119-86.972,33.431-12.94c9.688-74.032,9.688,223.655,0,156.796
		c9.688,66.859,32.21,70.956,11.863,2.157c20.347,68.799,20.347,79.854,0,5.823C310.687,284.449,224.697,284.449,245.045,210.418"/>
	<path clip-path="url(#SVGID_2_)" fill="#0000FF" d="M383.582,171.03c-21.529-12.19-42.822,6.236-29.546,30.841
		c-13.276,22.896,1.464,38.862,14.236,17.254c10.977,21.608,23.265,15.469,15.31-6.9
		C396.855,227.632,396.855,149.421,383.582,171.03 M408.592,205.464c25.773,37.743,27.006,44.702,5.177,7.979
		c34.929,36.723,39.844,34.268,7.332-3.019c37.018,34.01,43.979,42.607,3.667,4.525c35.807,46.271,20.247,61.424-20.272,12.296
		c1.207,49.128-6.161,35.614-16.607-14.451c-8.392,52.523-23.948,63.579-28.687,14.451c-44.812,49.128-64.465,27.017-24.155-25.449
		c-40.31-27.382,14.968-42.531,51.979-45.726c6.392-14.823,6.392-34.888,0-10.567c6.392-46.023-9.985-62.403-15.96-20.056
		c-15.318-42.347-18.593-14.911-17.037,14.451c-39.229-29.362-46.599-35.502-12.295-10.138
		c-34.304-55.667-15.059-60.989,18.333-11.863c12.472-49.126,74.3-31.109,48.526,34.292
		C434.365,133.878,434.365,235.015,408.592,205.464"/>
	<path clip-path="url(#SVGID_2_)" fill="#0000FF" d="M494.598,117.22c-0.796-37.534,4.12-6.004,10.354,32.999
		c-3.778-18.121-2.958-18.121,0.434,0c12.984-62.753,31.412-80.77,29.544-32.999c37.085-47.771,47.729-39.994,12.945,12.077
		c34.783-22.996,22.502-11.531-14.668,13.373c10.553-24.904,0.313-29.407-12.728-2.374c1.578-27.033-13.984,4.497-12.723,55.215
		c-1.262,34.862-0.85,47.968,1.296,20.056c-0.1,40.602,22.421,44.695,11.858,2.16c10.562,42.535,10.562,53.591,0,5.822
		c10.562,47.769-77.883,47.769-46.586,0c-31.297,47.769-31.297,36.713,0-5.822c-31.297,42.535-8.776,38.441,11.864-2.16
		c-20.641,40.602-20.641-69.955,0-58.231c-20.641-35.063-27.603-60.86-15.748-25.881c-34.784-34.979-34.784-46.037,0-5.824
		C435.656,85.417,481.517,69.448,494.598,117.22"/>
</g>
</svg>
