<?xml version="1.0" encoding="utf-8"?>
<!-- Generator: Adobe Illustrator 16.0.0, SVG Export Plug-In . SVG Version: 6.00 Build 0)  -->
<!DOCTYPE svg PUBLIC "-//W3C//DTD SVG 1.1//EN" "http://www.w3.org/Graphics/SVG/1.1/DTD/svg11.dtd">
<svg version="1.1" id="Layer_1" xmlns="http://www.w3.org/2000/svg" xmlns:xlink="http://www.w3.org/1999/xlink" x="0px" y="0px"
	 width="378.369px" height="262.137px" viewBox="109.03 0 378.369 262.137" enable-background="new 109.03 0 378.369 262.137"
	 xml:space="preserve">
<g>
	<defs>
		<rect id="SVGID_1_" x="109.03" y="0" width="378.369" height="262.137"/>
	</defs>
	<clipPath id="SVGID_2_">
		<use xlink:href="#SVGID_1_"  overflow="visible"/>
	</clipPath>
	<path clip-path="url(#SVGID_2_)" fill="#0000FF" d="M140.493,240.97c2.509,2.391,6.113,5.519,9.462,7.775
		c17.484,11.823,34.329,10.958,51.037-12.194c8.809-12.416,11.33-20.982,8.461-23.567c-2.8-2.899-10.99,0.179-22.008,3.803
		c-2.593,0.858-5.187,1.604-7.78,2.227C163.868,237.346,150.811,244.772,140.493,240.97 M184.367,213.363
		c4.004-1.29,8.008-2.853,12.01-4.653c25.875-11.865,43.65-39.159,56.446-61.9c16.395-29.92,16.409-38.253-6.281-17.422
		c-7.287,6.509-13.27,12.304-18.55,17.619C211.755,174.802,197.212,197.373,184.367,213.363 M203.05,165.202
		c-3.327,1.773-6.662,3.444-10.006,4.994c1.887-2.735,3.799-5.573,5.736-8.505c23.589-15.3,47.177-36.966,70.766-59.34
		c19.513-18.847,32.238-22.543,9.049,20.012c-21.883,40.444-47.055,68.077-66.151,80.756c-0.106,0.166-0.212,0.333-0.318,0.498
		c17.544-7.259,27.374-4.031,10.251,24.695c-16.906,27.673-39.676,41.71-62.752,28.558c-16.865-8.974-33.729-26.659-50.593-56.773
		c0.796,1.823,1.619,3.544,2.469,5.158c3.137,5.158,6.288,9.853,9.451,14.11C138.526,242.76,165.892,223.044,203.05,165.202"/>
	<path clip-path="url(#SVGID_2_)" fill="#0000FF" d="M207.222,262.136c1.101-1.52,2.223-3.102,3.362-4.742
		c3.341-1.513,6.698-3.25,10.071-5.186c26.335-40.842,61.748-112.407,106.236-189.354c7.417-12.645,5.816-13.507-1.73-7.22
		c2.032-3.516,4.084-7.034,6.153-10.559c15.5-16.764,31.329-32.341,47.483-45.076c-60.843,86.552-108.227,187.12-142.148,244.319
		c2.466-0.826,4.92-1.696,7.363-2.596c-1.284,2.273-2.55,4.495-3.796,6.67C229.219,254.51,218.22,259.435,207.222,262.136"/>
	<path clip-path="url(#SVGID_2_)" fill="#0000FF" d="M337.805,128.711c-19.874,16.434-37.694,39.725-50.538,63.369
		c-7.003,12.964-7.379,20.374-2.583,17.02c4.507-3.187,11.855-11.191,16.97-18.032C312.774,170.927,324.824,149.769,337.805,128.711
		 M317.857,180.799c-3.644,6.326-6.146,11.304-2.773,9.27c1.77-1.057,4.771-4.049,8.021-7.521c-0.365,1.669-0.725,3.336-1.085,5
		c-5.463,7.136-17.796,21.966-24.746,26.473c-7.929,5.126-5.471-2.723-0.994-12.424c-12.912,16.649-22.885,28.445-31.775,34.26
		c-9.87,6.264-9.899-2.68,0.184-21.23c20.928-38.518,52.52-73.876,80.763-98.125c3.421-5.377,6.904-10.729,10.447-16.032
		c11.566-17.048,13.231-26.833,6.627-23.884c-3.585,1.563-19.793,24.817-29.544,31.518c-7.262,4.949-7.616,2.253-0.857-9.177
		c8.906-15.057,21.062-25.551,28.455-29.183c14.804-8.035,32.846-1.044,6.935,33.123
		C349.405,127.925,332.855,154.815,317.857,180.799"/>
	<path clip-path="url(#SVGID_2_)" fill="#0000FF" d="M446.472,71.576c-0.762,7.106-18.249,19.231-29.312,29.939
		c0.123,0.047,0.248,0.095,0.369,0.142c33.815-17.836,55.416-5.821,65.371,8.452c6.658,9.949,6.339,17.059-3.731,15.878
		c-9.253-1.036-22.109-6.931-29.141-13.401c-5.009-4.788-6.871-9.647-8.182-10.699c-3.545-3.238-31.815,0.57-69.748,48.91
		c-6.304,7.916-12.622,16.706-17.899,25.188c2.278,0.271,4.547,0.665,6.801,1.189c-1.787,2.406-3.56,4.834-5.311,7.278
		c-11.313,1.915-22.626,6.376-33.938,12.27c1.602-2.73,3.226-5.467,4.864-8.208c3.528-2.479,7.069-4.837,10.629-7.047
		c16.922-26.832,35.702-53.463,56.34-75.917c13.029-14.058,25.437-28.265,14.765-30.266c2.178-2.116,4.375-4.182,6.59-6.188
		C425.299,67.631,435.812,68.263,446.472,71.576"/>
</g>
</svg>
