<?xml version="1.0" encoding="utf-8"?>
<!-- Generator: Adobe Illustrator 16.0.0, SVG Export Plug-In . SVG Version: 6.00 Build 0)  -->
<!DOCTYPE svg PUBLIC "-//W3C//DTD SVG 1.1//EN" "http://www.w3.org/Graphics/SVG/1.1/DTD/svg11.dtd">
<svg version="1.1" id="Layer_1" xmlns="http://www.w3.org/2000/svg" xmlns:xlink="http://www.w3.org/1999/xlink" x="0px" y="0px"
	 width="500.605px" height="236.547px" viewBox="-5.758 27.479 500.605 236.547"
	 enable-background="new -5.758 27.479 500.605 236.547" xml:space="preserve">
<g>
	<defs>
		<rect id="SVGID_1_" x="-3.64" y="27.479" width="498.487" height="236.547"/>
	</defs>
	<clipPath id="SVGID_2_">
		<use xlink:href="#SVGID_1_"  overflow="visible"/>
	</clipPath>
	
		<path clip-path="url(#SVGID_2_)" fill="none" stroke="#0000FF" stroke-width="4" stroke-linecap="round" stroke-linejoin="round" d="
		M475.319,108.913c-1.641,4.507,18.104,1.485,16.462,5.992c-5.886,16.174-36.396-8.194-42.282,7.98
		c-5.487,15.073,48.369,0.533,42.883,15.609c-7.06,19.394-44.522-20.74-51.581-1.347c-1.623,4.466,17.984,1.492,16.359,5.958
		c-3.46,9.507-19.764,0.516-23.224,10.022c-1.42,3.897,16.362,1.54,14.941,5.438 M417.297,109.343
		c-0.457,1.253,8.786,1.779,8.329,3.033c-5.787,15.897-33.929-1.354-39.717,14.543c-6.648,18.269,57.52,0.246,50.869,18.518
		c-4.258,11.697-25.715-3.316-29.972,8.381c-5.004,13.754,44.593,0.654,39.585,14.408c-6.026,16.559-32.938,3.999-38.967,20.561
		c-4.338,11.919,39.332,0.817,34.996,12.736c-5.403,14.84-29.596,3.444-34.996,18.285c-4.345,11.937,39.395,0.816,35.048,12.753
		c-7.35,20.197-43.928-4.15-51.277,16.043c-2.17,5.961,22.26,1.356,20.093,7.314 M306.208,110.706
		c-3.755,10.316,34.745,0.962,30.989,11.279c-9.742,26.764-61.416-29.294-71.158-2.53c-4.358,11.981,39.505,0.813,35.145,12.795
		c-4.504,12.376-28.327-9.853-32.831,2.523c-1.527,4.186,17.185,1.517,15.662,5.698 M315.671,123.228
		c-4.981,13.685,44.387,0.661,39.407,14.346c-4.646,12.761-23.704,5.916-28.35,18.681c-4.271,11.729,38.79,0.834,34.521,12.563
		c-7.325,20.123-46.213-20.314-53.534-0.19c-1.942,5.327,20.46,1.408,18.52,6.74c-7.894,21.688-47.977-7.284-55.874,14.404
		c-2.853,7.842,27.657,1.188,24.801,9.029c-5.79,15.907-33.013,0.989-38.805,16.896c-5.058,13.899,45.012,0.637,39.952,14.54
		c-4.632,12.722-20.794,9.627-25.422,22.353c-2.081,5.709,21.557,1.375,19.477,7.091 M326.621,172.903
		c-4.282,11.763,38.888,0.834,34.606,12.598c-5.606,15.401-28.933,6.65-34.539,22.059c-4.271,11.735,38.81,0.831,34.539,12.569
		c-4.917,13.505-30.013-5.067-34.929,8.437c-7.025,19.308,60.484,0.152,53.459,19.46c-9.417,25.87-58.49-37.097-67.905-11.228
		c-1.869,5.131,19.892,1.43,18.026,6.561 M372.102,235.957c-0.338,0.935,7.867,1.811,7.529,2.742 M328.203,239.484
		c-5.497,15.107,48.454,0.533,42.955,15.638 M224.367,29.553c-0.215,0.585,6.879,1.838,6.664,2.423
		c-5.333,14.657-32.448-5.034-37.779,9.621c-4.747,13.034,42.529,0.716,37.783,13.754c-6.95,19.092-43.838-20.148-50.789-1.056
		c-6.637,18.241,57.431,0.25,50.792,18.487c-5.267,14.474-29.317,2.451-34.584,16.925c-4.281,11.756,38.868,0.834,34.588,12.591
		c-4.732,13.003-29.857-12.92-34.59,0.083c-4.279,11.76,38.872,0.831,34.593,12.591c-4.875,13.391-29.717-4.854-34.593,8.537
		c-4.279,11.76,38.877,0.834,34.597,12.595c-4.885,13.421-29.71-4.581-34.597,8.841c-4.28,11.761,38.881,0.831,34.6,12.591
		c-5.234,14.381-29.364,1.946-34.598,16.33c-4.282,11.76,38.884,0.831,34.602,12.591c-5.202,14.298-29.398,1.492-34.604,15.79
		c-4.28,11.764,38.889,0.831,34.61,12.594c-4.736,13.01-29.875-12.448-34.608,0.561c-4.282,11.764,38.891,0.831,34.608,12.598
		c-5.44,14.948-31.183,0.558-36.623,15.509c-4.203,11.539,38.25,0.853,34.047,12.391c-6.633,18.227-41.619-23.008-48.252-4.781
		c-1.167,3.202,14.371,1.604,13.204,4.806 M114.502,49.469c-3.064,8.419,29.315,1.132,26.25,9.555
		c-13.069,35.9-81.792-47.061-94.861-11.161c-3.734,10.261,34.585,0.97,30.849,11.23C66,88.602,9.731,18.717-1.009,48.226
		C-8.589,69.053,63.839,48.24,56.259,69.07c-5.959,16.372-35.084-1.8-41.043,14.575c-5.222,14.343,46.281,0.599,41.06,14.941
		c-5.625,15.458-35.429-17.725-41.055-2.268c-5.222,14.346,46.283,0.599,41.062,14.945c-5.679,15.606-35.374-9.42-41.053,6.186
		c-5.222,14.346,46.286,0.599,41.065,14.945c-5.686,15.627-35.37-9.133-41.058,6.494c-5.214,14.329,46.237,0.599,41.021,14.928
		c-5.927,16.288-35.081-2.292-41.008,13.993c-5.217,14.329,46.234,0.603,41.019,14.931c-5.904,16.223-35.104-2.766-41.008,13.457
		c-5.214,14.328,46.233,0.599,41.017,14.928c-5.615,15.429-35.397-17.202-41.012-1.772c-5.216,14.327,46.232,0.602,41.018,14.93
		c-5.924,16.274-35.081-2.364-41.005,13.913c-6.315,17.352,54.882,0.329,48.569,17.677c-8.994,24.711-55.85-35.525-64.843-10.818
		c-3.582,9.846,33.397,1.004,29.813,10.85 M106.646,64.788c-6.995,19.221,60.241,0.159,53.244,19.38
		c-5.8,15.938-34.044-1.44-39.846,14.495c-4.732,13.003,42.438,0.724,37.703,13.723c-5.809,15.963-36.474-12.058-42.283,3.905
		c-3.733,10.254,34.565,0.966,30.832,11.22c-9.894,27.189-61.926-18.587-71.824,8.603c-10.601,29.129,88.626-0.733,78.024,28.398
		 M105.171,155.136c-7.695,21.145,65.747-0.011,58.052,21.131c-5.795,15.925-30.821,5.38-36.616,21.302
		c-5.445,14.965,48.058,0.543,42.611,15.509c-6.344,17.43-39.824-13.082-46.168,4.348c-4.758,13.071,42.642,0.713,37.882,13.788
		c-6.108,16.783-38.461-19.517-44.571-2.734c-4.299,11.809,39.015,0.827,34.718,12.636c-8.128,22.329-51.266-21.062-59.394,1.267
		c-3.692,10.147,34.257,0.98,30.563,11.123c-8.983,24.68-55.91-34.685-64.892-10.005c-4.183,11.494,38.115,0.855,33.932,12.353"/>
</g>
</svg>
