<?xml version="1.0" encoding="utf-8"?>
<!-- Generator: Adobe Illustrator 16.0.0, SVG Export Plug-In . SVG Version: 6.00 Build 0)  -->
<!DOCTYPE svg PUBLIC "-//W3C//DTD SVG 1.1//EN" "http://www.w3.org/Graphics/SVG/1.1/DTD/svg11.dtd">
<svg version="1.1" id="Layer_1" xmlns="http://www.w3.org/2000/svg" xmlns:xlink="http://www.w3.org/1999/xlink" x="0px" y="0px"
	 width="596px" height="265.941px" viewBox="0 0 596 265.941" enable-background="new 0 0 596 265.941" xml:space="preserve">
<g>
	<g>
		<path fill="#0000FF" d="M345.086,165.738c-0.742,0.723-1.403,1.432-1.985,2.122c3.191,1.957,6.218,3.995,9.075,6.104
			c6.739-0.398,14.083-0.624,21.496-0.618c3.114-0.019,5.404-2.319,7.619-7.915c1.777-5.624,3.48-14.543-4.711-28.445
			c-16.893-27.434-59.626-33.606-85.02-28.631c-0.281-0.095-0.564-0.189-0.847-0.283c7.748-5.504,13.306-11.472,11.667-19.122
			c-1.958-7.444-11.112-16.569-40.152-23.64c-57.587-15.238-149.344,6.184-192.732,47.394
			c-31.408,28.452-55.051,61.062-67.624,95.754c6.14-3.908,12.34-7.643,18.585-11.204c3.981-6.48,8.329-12.803,13.007-18.955
			C160.503,116.561,288.318,124.887,345.086,165.738z M264.485,122.826c4.224-1.809,8.551-3.515,12.969-5.112
			c30.43-10.954,64.72,2.389,78.665,17.667c18.326,19.693,14.962,30.421,7.483,30.575c-2.896,0.125-5.68-0.646-8.759-1.791
			C335.741,145.533,304.646,130.313,264.485,122.826z M57.771,143.78c1.564-4.004,5.034-9.958,10.502-15.509
			c27.194-28.839,88.399-54.899,156.513-47.523c34.686,4.229,47.34,12.276,50.355,18.575c2.66,6.631-4.32,11.513-17.104,17.07
			c-3.007,1.282-5.967,2.614-8.875,3.992C195.553,113.209,127.9,119.378,57.771,143.78z"/>
		<path fill="#0000FF" d="M176.005,45.179c5.822,0.084,11.557,0.271,17.201,0.557c9.331-2.811,18.726-5.325,28.153-7.538
			c121.239,13.312,186.746,76.341,179.24,122.006c-1.33,7.351-4.029,9.03-6.586,8.796c-0.437,1.963-1.01,3.879-1.717,5.739
			c1.607,4.29,0.69,7.689-2.489,8.914c27.483-13.786,32.245-46.865,10.678-78.717c-21.214-32.104-68.758-62.982-137.74-78.198
			c5.847-2.163,11.825-4.211,17.928-6.132c-4.996-1.347-10.11-2.614-15.34-3.798C234.188,23.279,204.106,32.929,176.005,45.179z"/>
		<path fill="#0000FF" d="M474.669,47.676c-5.272-6.909-9.36-12.423-0.471-9.514c4.62,1.554,11.378,5.498,17.844,10.24
			c0.533-1.604,1.051-3.214,1.554-4.829c-9.245-9.467-38.975-28.206-60.571-31.947c-24.036-4.282-17.899,4.809-8.845,14.39
			C393.209,10.81,361.157,3.355,334.48,4.617c-30.738,2.168-20.844,14.254,8.374,27.785c57.871,28.46,104.317,48.332,135.382,76.94
			c0.909,4.99,1.35,9.858,1.334,14.552c-0.562,15.165-12.28,19.407-17.802,16.076c-2.298-1.42-2.988-20.548-16.25-25.613
			c-9.133-3.385-11.393-0.227-9.648,8.351c2.02,11.232,8.797,17.522,14.997,20.904c6.268,3.175,15.437,6.1,26.494,6.384
			c10.607-0.096,23.105-2.831,25.656-19.772C505.545,105.824,496.391,76.22,474.669,47.676z M475.375,97.848
			c-26.256-18.521-51.888-35.381-78.638-56.102c-14.781-11.125-16.902-20.358-3.646-19.296c12.144,1.026,30.826,7.473,41.564,14.067
			C455.524,56.446,469.075,77.773,475.375,97.848z"/>
		<path fill="#0000FF" d="M509.497,204.273c11.118,4.904,35.599-1.376,46.417-13.22c0.114,0.186,0.229,0.371,0.342,0.558
			c-17.457,36.822-36.725,39.751-32.655,53.333c1.655,7.845,10.919,17.657,25.676,18.07c13.603,0.31,20.645-13.747,16.104-25.994
			c-3.101-8.646-9.487-14.237-10.323-16.231c-1.409-3.381,2.883-9.508,9.895-23.41c6.593-13.953,15.904-35.682,14.867-71.418
			c-0.396-11.859-2.325-24.831-4.281-36.578c6.521,4.03,13.024,8.35,19.497,12.975c-0.841-3.971-1.831-7.976-2.973-12.005
			c-28.136-23.49-58.542-41.481-90.221-54.602c2.579,3.418,5.008,6.851,7.285,10.291c8.561,4.789,16.883,9.949,24.946,15.478
			c18.16,35.91,20.962,71.444,10.461,97.776c-6.515,17.241-23.95,24.603-32.074,13.898c-1.749,1.842-3.618,3.564-5.603,5.154
			C509.17,187.372,510.014,196.158,509.497,204.273z"/>
	</g>
</g>
</svg>
