<?xml version="1.0" encoding="utf-8"?>
<!-- Generator: Adobe Illustrator 16.0.0, SVG Export Plug-In . SVG Version: 6.00 Build 0)  -->
<!DOCTYPE svg PUBLIC "-//W3C//DTD SVG 1.1//EN" "http://www.w3.org/Graphics/SVG/1.1/DTD/svg11.dtd">
<svg version="1.1" id="Layer_1" xmlns="http://www.w3.org/2000/svg" xmlns:xlink="http://www.w3.org/1999/xlink" x="0px" y="0px"
	 width="97.727px" height="171.715px" viewBox="269.93 115.712 97.727 171.715"
	 enable-background="new 269.93 115.712 97.727 171.715" xml:space="preserve">
<g>
	<defs>
		<rect id="SVGID_1_" x="269.93" y="115.712" width="97.727" height="171.715"/>
	</defs>
	<clipPath id="SVGID_2_">
		<use xlink:href="#SVGID_1_"  overflow="visible"/>
	</clipPath>
	<path clip-path="url(#SVGID_2_)" fill="#0000FF" d="M279.766,275.507c0.635,0.884,1.583,1.767,2.536,1.767
		c4.941,0,10.559-9.049,16.087-35.977c5.754-28.031,3.535-38.185-1.857-38.185h-1.905L279.766,275.507z M296.077,196.052h2.897
		c6.301,0,10.925-15.673,13.959-30.458c3.896-18.983,3.807-28.693-1.088-28.693c-1.585,0-2.901,0.884-4.078,2.206L296.077,196.052z
		 M302.33,138.665l-2.13-1.764l1.449-7.064h15.227c4.122,0,7.114,8.828,1.948,33.989c-4.985,24.28-11.374,33.549-16.086,36.198
		l-0.093,0.44c4.032,5.297,6.48,17.655,1.315,42.819c-5.167,25.161-12.732,41.052-19.439,41.052h-14.59l1.449-7.062l2.855-1.767
		L302.33,138.665z"/>
	<path clip-path="url(#SVGID_2_)" fill="#0000FF" d="M298.25,284.336l1.221-5.958l2.947-2.209l27.053-131.767
		c1.496-7.282,1.086-9.49-0.546-9.49l1.226-5.958l9.742-13.242l-32.943,160.457l2.037,2.209l-1.221,5.958H298.25z"/>
	<path clip-path="url(#SVGID_2_)" fill="#0000FF" d="M333.864,222.756c-4.895,5.076-9.289,15.01-12.688,31.564
		c-1.856,9.047-1.994,17.654-0.633,17.654c1.268,0,3.307-3.312,4.665-7.06L333.864,222.756z M329.695,265.134
		c-0.906,4.415-1.541,8.166-0.591,8.166c0.5,0,1.316-1.325,2.178-3.088l-0.185,4.633c-1.402,4.416-4.803,12.582-6.843,12.582
		c-2.308,0-1.626-7.285-0.449-14.787c-3.536,8.826-6.481,14.787-9.062,14.787c-2.902,0-2.63-11.92,0.269-26.047
		c5.938-28.911,13.729-37.077,20.529-46.788l2.218-10.817c2.403-11.696,2.403-20.526,0.86-20.526
		c-0.815,0-4.213,14.789-6.614,14.789c-1.767,0-1.905-3.312-0.453-10.372c1.903-9.271,4.624-12.141,6.344-12.141
		c3.354,0,8.202,9.713,2.992,35.092L329.695,265.134z"/>
	<path clip-path="url(#SVGID_2_)" fill="#0000FF" d="M357.877,175.524c0.225,5.519-2.719,22.515-4.758,33.77h0.09
		c6.752-24.057,10.784-33.77,13.144-33.77c1.539,0,1.856,4.195,0.182,12.362c-1.544,7.501-4.17,13.681-5.892,13.681
		c-1.225,0-1.859-2.427-2.175-2.427c-0.952,0-6.164,16.993-14.275,56.502c-1.358,6.623-2.764,13.684-3.94,20.526l2.04,2.207
		l-1.225,5.96h-9.789l1.223-5.96l2.946-2.207l12.234-59.592c2.582-12.581,4.668-26.485,2.13-26.485l1.225-5.959L357.877,175.524z"/>
</g>
</svg>
