<?xml version="1.0" encoding="utf-8"?>
<!-- Generator: Adobe Illustrator 16.0.0, SVG Export Plug-In . SVG Version: 6.00 Build 0)  -->
<!DOCTYPE svg PUBLIC "-//W3C//DTD SVG 1.1//EN" "http://www.w3.org/Graphics/SVG/1.1/DTD/svg11.dtd">
<svg version="1.1" id="Layer_1" xmlns="http://www.w3.org/2000/svg" xmlns:xlink="http://www.w3.org/1999/xlink" x="0px" y="0px"
	 width="391px" height="291px" viewBox="40.5 76.47 391 291" enable-background="new 40.5 76.47 391 291" xml:space="preserve">
<g>
	<g>
		<path fill="#0000FF" d="M58.58,168.263c-4.548,8.957-9.108,18.815-13.682,29.643c-0.782,0-1.563,0-2.345,0
			C69.614,130.188,96.675,96.629,123.735,83.5c22.154-12.08,48.961,0.835,51.688,19.855c2.665,18.224-17.471,12.317-36.468,16.569
			c0.029,0.078,0.058,0.156,0.087,0.233c25.374-1.06,49.825,26.927,52.233,46.099c1.332,9.57-2.135,12.706-8.96,10.466
			c-6.874-1.935-17.104-9.244-30.422-13.475c-19.347-5.842-38.694,2.706-58.042,34.658c-0.781,0-1.563,0-2.344,0
			c3.16-5.715,6.333-10.801,9.52-15.295C86.878,177.829,72.729,173.046,58.58,168.263z M102.649,137.724
			c4.594-4.63,9.187-8.39,13.781-11.363c14.921-8.944,23.303-10.965,27.765-14.653c4.442-3.237,4.964-8.143,3.698-12.439
			c-3.084-10.482-15.695-20.2-41.62,0.04c-8.36,7.075-14.117,14.451-18.527,20.867C92.713,126.025,97.681,131.875,102.649,137.724z
			 M123.446,162.212c3.542-1.532,8.336-2.8,12.178-3.325c19.789-2.222,33.445,6.334,29.388-11.896
			c-4.177-17.556-26.095-33.382-51.589-14.669c-2.975,2.173-5.951,4.691-8.926,7.58
			C110.813,147.339,117.129,154.775,123.446,162.212z"/>
		<path fill="#0000FF" d="M204.711,208.153c-0.174-1.581-0.349-3.161-0.523-4.742c3.284,3.521,6.583,7.19,9.898,10.967
			c-2.896-36.903-5.791-73.806-8.687-110.709c-0.464-6.1-5.167-10.602-13.804-14.432c-0.174-1.581-0.349-3.162-0.523-4.742
			c12.114,1.676,24.5,4.723,37.157,7.858c1.402,49.029,2.804,98.058,4.206,147.087c3.383,5.419,6.75,10.923,10.102,16.467
			c0.008,1.901,0.017,3.804,0.026,5.705C229.946,242.828,217.328,224.175,204.711,208.153z"/>
		<path fill="#0000FF" d="M315.188,326.66c-0.656,5.589-0.659,10.912,3.212,13.661c2.03,1.408,4.459,1.073,6.811-0.183
			c0.787,2.633,1.563,5.259,2.329,7.878c-2.861,5.106-11.082,11.772-19.081,3.98c-9.096-8.867-11.478-21.792-12.142-32.065
			c-8.019,3.039-15.269,0.996-25.455-13.438c-11.335-16.525-19.77-41.591-19.688-55.305c0.095-28.44,27.55-4.2,50.766-0.663
			c0.396-4.261,0.791-8.521,1.186-12.783c1.356-13.931-6.502-29.174-14.058-34.38c-3.996-2.804-6.829,12.523-18.133,2.445
			c-8.35-7.491-12.125-14.583-11.957-21.686c0.196-9.318,10.798-3.576,19.313,2.608c16.753,14.109,49.27,38.958,45.04,70.409
			C320.616,280.313,317.902,303.487,315.188,326.66z M301.045,260.181c-18.026-7.202-28.956-8.992-29.787,8.854
			c-0.441,9.577,5.745,27.568,11.246,34.363c5.17,6.353,11.051,8.654,13.919,6.617C297.964,293.405,299.504,276.793,301.045,260.181
			z"/>
		<path fill="#0000FF" d="M376.169,201.829c5.444,3.353,3.786,27.575,2.184,44.603c0.141-0.114,0.281-0.229,0.421-0.344
			c14.509-45.257,27.567-75.491,39.186-97.127c7.621-14.248,12.044-19.987,9.304-4.012c-2.529,14.622-10.976,40.906-19.036,54.249
			c-5.744,9.676-10.386,12.521-11.891,14.475c-4.596,6.563-17.199,42.328-27.218,105.047c-1.712,10.662-3.335,21.894-4.198,32.501
			c3.172-0.505,6.328-1.493,9.469-3.004c-0.562,3.387-1.122,6.773-1.684,10.16c-12.978,10.155-25.956,11.354-38.935,6.317
			c0.391-2.788,0.781-5.576,1.172-8.364c3.493,0.121,7.002-0.215,10.526-1.059c4.34-29.224,8.679-58.447,13.019-87.671
			c2.791-18.974,2.169-36.608-10.105-34.615c0.376-2.747,0.752-5.493,1.129-8.24C358.269,219.634,367.155,212.184,376.169,201.829z"
			/>
	</g>
</g>
</svg>
