<?xml version="1.0" encoding="utf-8"?>
<!-- Generator: Adobe Illustrator 16.0.0, SVG Export Plug-In . SVG Version: 6.00 Build 0)  -->
<!DOCTYPE svg PUBLIC "-//W3C//DTD SVG 1.1//EN" "http://www.w3.org/Graphics/SVG/1.1/DTD/svg11.dtd">
<svg xmlns:xlink="http://www.w3.org/1999/xlink" version="1.1" id="Layer_1" xmlns="http://www.w3.org/2000/svg" x="0px"
     y="0px"
     width="392.452px" height="241.18px" viewBox="0 0 392.452 241.18" enable-background="new 0 0 392.452 241.18"
     xml:space="preserve">
<g>
	<defs>
		<rect id="SVGID_1_" width="392.452" height="241.18"/>
	</defs>
    <clipPath id="SVGID_2_">
		<use xlink:href="#SVGID_1_" overflow="visible"/>
	</clipPath>
    <path clip-path="url(#SVGID_2_)" fill="#0000FF" d="M324.008,96.1l-4.832,8.37c10.478,0,2.383,19.53-7.819,37.2l-48.324,83.7
		l-12.081,3.1l-4.832,8.37h40.414l4.832-8.37l-8.501-3.1c4.613-9.61,10.153-19.53,15.523-28.83
		c32.037-55.49,52.927-79.36,56.856-79.36c1.31,0,4.018,3.41,9.07,3.41c7.109,0,17.734-8.68,23.819-19.22
		c6.622-11.471,5.157-17.36-1.203-17.36c-9.729,0-26.024,13.64-53.017,47.43h-0.374c8.006-15.81,19.542-39.68,18.403-47.43
		L324.008,96.1z M221.965,209.56c-5.475,5.271-13.773,9.92-19.011,9.92c-5.613,0-5.369-12.09,1.97-24.8
		c13.423-23.25,31.206-37.2,51.226-44.33L221.965,209.56z M284.703,133.3c20.582-35.65,0.207-49.29-13.64-49.29
		c-7.108,0-18.229,4.03-25.747,17.05c-5.727,9.92-5.043,14.57,2.254,14.57c9.916,0,23.403-20.771,26.771-20.771
		c6.361,0,6.686,12.4-2.801,28.83l-8.77,15.19c-27.707,13.64-59.588,25.109-83.034,65.72c-11.455,19.84-12.138,36.58-0.164,36.58
		c10.664,0,22.606-8.37,36.875-20.77c-4.588,10.539-7.128,20.77,2.414,20.77c8.42,0,22.151-11.47,27.79-17.67l0.577-6.51
		c-3.489,2.479-6.809,4.34-8.866,4.34c-3.931,0-1.448-5.271,2.132-11.47L284.703,133.3z M154.391,236.84l4.833-8.37l-8.5-3.1
		L280.841,0l-39.739,18.6l-4.832,8.37c6.735,0,8.5,3.1,2.594,13.33l-106.85,185.07l-12.08,3.1l-4.833,8.37H154.391z M98.98,122.76
		h7.858c22.265,0,31.806,14.26,9.076,53.63c-21.835,37.82-44.703,50.53-65.097,50.53c-3.929,0-7.89-1.24-10.542-2.48L98.98,122.76z
		 M17.449,224.439l-11.722,2.48L0,236.84h60.245c27.691,0,58.352-22.32,78.755-57.66c20.404-35.34,9.846-52.7-7.001-60.14
		l0.358-0.62c19.361-3.721,45.401-16.74,65.088-50.84c20.404-35.341,7.73-47.74-9.296-47.74h-62.864l-5.727,9.92l8.858,2.479
		L17.449,224.439z M150.884,32.859c4.816-1.859,10.208-3.1,16.758-3.1c20.206,0,20.938,13.64,5.545,40.3
		c-11.991,20.771-30.499,42.78-56.506,42.78h-11.974L150.884,32.859z"/>
</g>
</svg>
