<?xml version="1.0" encoding="utf-8"?>
<!-- Generator: Adobe Illustrator 16.0.0, SVG Export Plug-In . SVG Version: 6.00 Build 0)  -->
<!DOCTYPE svg PUBLIC "-//W3C//DTD SVG 1.1//EN" "http://www.w3.org/Graphics/SVG/1.1/DTD/svg11.dtd">
<svg version="1.1" id="Layer_1" xmlns="http://www.w3.org/2000/svg" xmlns:xlink="http://www.w3.org/1999/xlink" x="0px" y="0px"
	 width="368px" height="165.811px" viewBox="61.5 101.736 368 165.811" enable-background="new 61.5 101.736 368 165.811"
	 xml:space="preserve">
<g>
	<g>
		<g>
			<path fill="#0000FF" d="M89.5,117.47c-7-2-17,4-23-2c26-8,53-5,80,2c2,1,5,2,8,2c8,2,15,5,22,10c9,7,13,17,14,28c1,7,0,13-2,19
				c-2,4-4,8-6,12c-2,3-5,6-8,8c-2,1-5,2-7,3c-9,4-21,3-28-4c2,3,3,6,5,9c2,1,4,2,5,4c5,7,11,11,17,16c11,10,10,29-4,36
				c-10,5-21,7-33,6c-13-2-26-5-39-8c-8-1-18,0-24,6c-1-3-4-7-4-10s4-5,6-7c-7-22-2-46,7-66C85.5,162.47,105.5,138.47,89.5,117.47
				L89.5,117.47z M118.5,166.47c3,2,6,4,8,6c7,9,14,20,26,18c3,0,5-2,7-3c11-9,14-23,12-36c-2-8-6-15-13-20c-10-7-22-11-34-11
				C131.5,135.47,130.5,154.47,118.5,166.47L118.5,166.47z M85.5,246.47c12,7,26,10,40,7c15-11,14-32,9-48c-2-7-4-14-7-21
				c-3-6-8-10-13-14c-15,12-28,29-30,49C84.5,228.47,83.5,237.47,85.5,246.47L85.5,246.47z"/>
		</g>
		<g>
			<path fill="#0000FF" d="M197.5,264.47c-2-2-3-5-5-7c2-1,5-2,7-3c-13-21-15-50,2-70c7-7,15-12,22-19c10-11,10-26,5-39
				c-2-4-5-6-9-8c-2-1-5-1-7-2s-3-3-4-5c9-1,17-4,24-9c21,22,26,59,3,82c-5,4-11,8-16,12c-18,16-13,44,1,61c8,2,16,1,22,7
				C227.5,264.47,212.5,264.47,197.5,264.47L197.5,264.47z"/>
		</g>
		<g>
			<path fill="#0000FF" d="M309.5,254.47c-1,5,4,7,8,7c6-1,11-3,17,0c-11,12-31,13-43,1c-3-3-4-7-6-10c-7,8-17,14-27,8
				c-15-11-16-31-8-47c2-4,5-6,7-9c3-3,6-4,9-6c4-2,9-2,14-3c6,0,12,1,17,4c3,2,5,3,8,5c2,1,5,3,7,2c4-1,4-6,6-10c1-3,1-6,1-9
				c0-5-3-8-5-12c-1-2-3-5-5-6c-3,0-3-4-6-3c-2,1-2,3-3,5c-6,7-15,1-22,0c-3-1-6-2-8-4c-1-1-2-2-3-3c0-1,0-2,0-3c5-6,13-6,20-5
				s14,3,20,6c7,4,13,9,18,15c2,3,3,5,5,8c2,4,2,8,3,12c1,3-1,7-1,10c-4,14-15,23-22,36C308.5,247.47,309.5,250.47,309.5,254.47
				L309.5,254.47z M307.5,213.47c-8-3-14-11-24-9c-5,1-8,3-12,6c-3,2-5,6-6,9s-2,6-2,9s1,6,2,9c1,2,2,4,4,6c3,2,7,4,11,3
				c1,0,3-1,4-2c2-11,7-19,15-25C302.5,217.47,305.5,216.47,307.5,213.47L307.5,213.47z"/>
		</g>
		<g>
			<path fill="#0000FF" d="M379.5,157.47c12,8,21,23,15,37c5-4,8-9,10-15c0-1,2-1,2-2s0-2,0-3c1-3,2-5,4-8c1-2,2-3,4-4c5-1,9,3,11,7
				c4,5,3,11,3,17c0,3-1,5-3,8c-1,2-3,3-5,4c-5,1-8-3-11-6c-1,0-3,1-4,2c-7,11-17,15-28,22c-12,8-14,25-8,38c6,3,13,5,17,11
				c-13-1-26-7-38-2c-1-3-4-6-3-9c0-2,3-4,6-5c-3-16,0-34,11-47c4-4,8-9,12-14c5-8-1-16-8-20c-4-2-9,0-13-1c-1-1-1-3-2-4
				C360.5,161.47,370.5,159.47,379.5,157.47L379.5,157.47z"/>
		</g>
	</g>
</g>
</svg>
